<svg width="18" height="14" viewBox="0 0 18 14" fill="none" xmlns="http://www.w3.org/2000/svg">
<path fill-rule="evenodd" clip-rule="evenodd" d="M17.3327 4.50065C17.3327 4.96089 16.9596 5.33398 16.4993 5.33398C15.5789 5.33398 14.8327 6.08018 14.8327 7.00065C14.8327 7.92113 15.5789 8.66732 16.4993 8.66732C16.9596 8.66732 17.3327 9.04041 17.3327 9.50065V11.1673C17.3327 12.548 16.2134 13.6673 14.8327 13.6673H11.4993V11.1673C11.4993 10.7071 11.1263 10.334 10.666 10.334C10.2058 10.334 9.83268 10.7071 9.83268 11.1673V13.6673H3.16602C1.7853 13.6673 0.666016 12.548 0.666016 11.1673V9.50065C0.666016 9.04041 1.03911 8.66732 1.49935 8.66732C2.41982 8.66732 3.16602 7.92113 3.16602 7.00065C3.16602 6.08018 2.41982 5.33398 1.49935 5.33398C1.03911 5.33398 0.666016 4.96089 0.666016 4.50065V2.83398C0.666016 1.45327 1.7853 0.333984 3.16602 0.333984H9.83268V2.83398C9.83268 3.29422 10.2058 3.66732 10.666 3.66732C11.1263 3.66732 11.4993 3.29422 11.4993 2.83398V0.333984H14.8327C16.2134 0.333984 17.3327 1.45327 17.3327 2.83398V4.50065ZM10.666 8.66732C11.1263 8.66732 11.4993 8.29422 11.4993 7.83398V6.16732C11.4993 5.70708 11.1263 5.33398 10.666 5.33398C10.2058 5.33398 9.83268 5.70708 9.83268 6.16732V7.83398C9.83268 8.29422 10.2058 8.66732 10.666 8.66732Z" fill="white"/>
</svg>
