<svg width="18" height="18" viewBox="0 0 18 18" fill="none" xmlns="http://www.w3.org/2000/svg">
<path fill-rule="evenodd" clip-rule="evenodd" d="M14.8327 0.666016H3.16602C1.7853 0.666016 0.666016 1.7853 0.666016 3.16602V14.8327C0.666016 16.2134 1.7853 17.3327 3.16602 17.3327H14.8327C16.2134 17.3327 17.3327 16.2134 17.3327 14.8327V3.16602C17.3327 1.7853 16.2134 0.666016 14.8327 0.666016ZM5.59935 13.4827C5.55969 13.585 5.50022 13.6784 5.42435 13.7577C5.34335 13.8313 5.25034 13.8905 5.14935 13.9327C5.04916 13.9754 4.94158 13.998 4.83268 13.9993C4.61204 13.9963 4.40071 13.91 4.24102 13.7577C4.16515 13.6784 4.10568 13.585 4.06602 13.4827C3.97687 13.281 3.97687 13.051 4.06602 12.8493C4.10568 12.7471 4.16515 12.6536 4.24102 12.5743C4.48065 12.3379 4.83902 12.2689 5.14935 12.3993C5.25034 12.4416 5.34335 12.5007 5.42435 12.5743C5.50022 12.6536 5.55969 12.7471 5.59935 12.8493C5.6885 13.051 5.6885 13.281 5.59935 13.4827ZM5.61602 9.31602C5.64004 9.26878 5.65689 9.21822 5.66602 9.16602C5.67011 9.11054 5.67011 9.05483 5.66602 8.99935C5.66295 8.77871 5.57663 8.56738 5.42435 8.40768C5.34335 8.33407 5.25034 8.27488 5.14935 8.23268C4.83902 8.10219 4.48065 8.17123 4.24102 8.40768C4.16385 8.48591 4.10419 8.57965 4.06602 8.68268C4.02332 8.78287 4.00067 8.89045 3.99935 8.99935C3.99807 9.22085 4.08503 9.43375 4.24102 9.59102C4.40071 9.74329 4.61204 9.82961 4.83268 9.83268C4.94719 9.8336 5.06067 9.81091 5.16602 9.76602C5.267 9.72381 5.36002 9.66463 5.44102 9.59102L5.54102 9.46602C5.57255 9.41956 5.59778 9.36912 5.61602 9.31602ZM5.42435 5.42435C5.34335 5.49796 5.25034 5.55715 5.14935 5.59935C5.05045 5.646 4.942 5.66883 4.83268 5.66602C4.61204 5.66295 4.40071 5.57663 4.24102 5.42435C4.08503 5.26708 3.99807 5.05418 3.99935 4.83268C4.00067 4.72378 4.02332 4.6162 4.06602 4.51602C4.10822 4.41503 4.16741 4.32202 4.24102 4.24102C4.48065 4.00456 4.83902 3.93552 5.14935 4.06602C5.25034 4.10822 5.34335 4.16741 5.42435 4.24102C5.49796 4.32202 5.55715 4.41503 5.59935 4.51602C5.64205 4.6162 5.6647 4.72378 5.66602 4.83268C5.66295 5.05332 5.57663 5.26465 5.42435 5.42435ZM8.16602 13.9993H13.166C13.6263 13.9993 13.9993 13.6263 13.9993 13.166C13.9993 12.7058 13.6263 12.3327 13.166 12.3327H8.16602C7.70578 12.3327 7.33268 12.7058 7.33268 13.166C7.33268 13.6263 7.70578 13.9993 8.16602 13.9993ZM13.166 9.83268H8.16602C7.70578 9.83268 7.33268 9.45959 7.33268 8.99935C7.33268 8.53911 7.70578 8.16602 8.16602 8.16602H13.166C13.6263 8.16602 13.9993 8.53911 13.9993 8.99935C13.9993 9.45959 13.6263 9.83268 13.166 9.83268ZM8.16602 5.66602H13.166C13.6263 5.66602 13.9993 5.29292 13.9993 4.83268C13.9993 4.37245 13.6263 3.99935 13.166 3.99935H8.16602C7.70578 3.99935 7.33268 4.37245 7.33268 4.83268C7.33268 5.29292 7.70578 5.66602 8.16602 5.66602Z" fill="white"/>
</svg>
