<svg width="44" height="44" viewBox="0 0 44 44" fill="none" xmlns="http://www.w3.org/2000/svg">
<rect width="44" height="44" rx="5" fill="#DEEBFF"/>
<path d="M26.384 18.712L23.179 16.384C22.8192 16.1207 22.3816 15.9855 21.936 16C21.3924 16.0136 20.8667 16.1961 20.4317 16.5223C19.9967 16.8485 19.6742 17.3021 19.509 17.82C19.323 18.403 19.153 18.797 18.999 19.002C18.5336 19.6228 17.93 20.1266 17.236 20.4734C16.5421 20.8203 15.7768 21.0005 15.001 21V23C16.0337 23.0011 17.0538 22.7733 17.9879 22.3329C18.9219 21.8925 19.7468 21.2504 20.403 20.453L21.1 24.408L19.039 26.138L16.816 32.246L18.696 32.93L20.736 27.326L24.126 24.481C24.4042 24.2564 24.617 23.9612 24.7424 23.6264C24.8678 23.2915 24.9012 22.9291 24.839 22.577L24.33 19.692L25.007 20.184L27.134 23.112L28.752 21.936L26.401 18.7L26.384 18.712ZM20.501 15.5C21.0314 15.5 21.5401 15.2893 21.9152 14.9142C22.2902 14.5391 22.501 14.0304 22.501 13.5C22.501 12.9696 22.2902 12.4609 21.9152 12.0858C21.5401 11.7107 21.0314 11.5 20.501 11.5C19.9705 11.5 19.4618 11.7107 19.0867 12.0858C18.7117 12.4609 18.501 12.9696 18.501 13.5C18.501 14.0304 18.7117 14.5391 19.0867 14.9142C19.4618 15.2893 19.9705 15.5 20.501 15.5ZM23.473 28.681L26.687 32.511L28.219 31.226L25.243 27.68L24.497 25.5L22.706 27L23.473 28.681Z" fill="#0065FF"/>
</svg>
