<svg width="44" height="44" viewBox="0 0 44 44" fill="none" xmlns="http://www.w3.org/2000/svg">
<rect width="44" height="44" rx="5" fill="#EAE6FF"/>
<path d="M28.364 27.3639L22 33.7279L15.636 27.3639C14.3773 26.1052 13.5202 24.5016 13.1729 22.7558C12.8257 21.0099 13.0039 19.2004 13.6851 17.5558C14.3663 15.9113 15.5198 14.5057 16.9999 13.5168C18.4799 12.5278 20.22 12 22 12C23.78 12 25.5201 12.5278 27.0001 13.5168C28.4802 14.5057 29.6337 15.9113 30.3149 17.5558C30.9961 19.2004 31.1743 21.0099 30.8271 22.7558C30.4798 24.5016 29.6227 26.1052 28.364 27.3639ZM22 22.9999C22.5304 22.9999 23.0391 22.7892 23.4142 22.4141C23.7893 22.0391 24 21.5304 24 20.9999C24 20.4695 23.7893 19.9608 23.4142 19.5857C23.0391 19.2106 22.5304 18.9999 22 18.9999C21.4696 18.9999 20.9609 19.2106 20.5858 19.5857C20.2107 19.9608 20 20.4695 20 20.9999C20 21.5304 20.2107 22.0391 20.5858 22.4141C20.9609 22.7892 21.4696 22.9999 22 22.9999Z" fill="#6554C0"/>
</svg>
