<svg width="18" height="18" viewBox="0 0 18 18" fill="none" xmlns="http://www.w3.org/2000/svg">
<path fill-rule="evenodd" clip-rule="evenodd" d="M15.6665 6.23317L16.7582 6.5915C17.0976 6.70614 17.3258 7.0249 17.3248 7.38317V10.5748C17.3432 10.9506 17.1076 11.292 16.7498 11.4082L15.6665 11.7665L16.2748 12.7748C16.4391 13.0956 16.3786 13.4856 16.1248 13.7415L13.8332 16.0332C13.5773 16.2869 13.1873 16.3474 12.8665 16.1832L11.8498 15.6665L11.4915 16.7498C11.3753 17.1076 11.0339 17.3432 10.6582 17.3248H7.42483C7.04912 17.3432 6.70766 17.1076 6.5915 16.7498L6.23317 15.6665L5.2165 16.1915C4.89574 16.3558 4.50572 16.2953 4.24983 16.0415L1.9665 13.8332C1.71274 13.5773 1.65222 13.1873 1.8165 12.8665L2.33317 11.8498L1.24983 11.4915C0.89205 11.3753 0.656448 11.0339 0.674833 10.6582V7.42483C0.656448 7.04912 0.89205 6.70766 1.24983 6.5915L2.33317 6.23317L1.80817 5.2165C1.64388 4.89574 1.7044 4.50572 1.95817 4.24983L4.24983 1.95817C4.50572 1.7044 4.89574 1.64388 5.2165 1.80817L6.23317 2.33317L6.54983 1.24983C6.66599 0.89205 7.00745 0.656448 7.38317 0.674833H10.5748C10.9506 0.656448 11.292 0.89205 11.4082 1.24983L11.7665 2.33317L12.7832 1.80817C13.1039 1.64388 13.4939 1.7044 13.7498 1.95817L16.0332 4.24983C16.2869 4.50572 16.3474 4.89574 16.1832 5.2165L15.6665 6.23317ZM4.83317 8.99983C4.83317 11.301 6.69865 13.1665 8.99983 13.1665C11.301 13.1665 13.1665 11.301 13.1665 8.99983C13.1665 6.69865 11.301 4.83317 8.99983 4.83317C6.69865 4.83317 4.83317 6.69865 4.83317 8.99983Z" fill="white"/>
<circle cx="9" cy="9" r="2.5" fill="white"/>
</svg>
