<svg width="9" height="15" viewBox="0 0 9 15" fill="none" xmlns="http://www.w3.org/2000/svg">
<path d="M5.4375 3.4375C6.125 3.4375 6.6875 2.875 6.6875 2.1875C6.6875 1.5 6.125 0.9375 5.4375 0.9375C4.75 0.9375 4.1875 1.5 4.1875 2.1875C4.1875 2.875 4.75 3.4375 5.4375 3.4375ZM3.125 5.5625L1.375 14.375H2.6875L3.8125 9.375L5.125 10.625V14.375H6.375V9.6875L5.0625 8.4375L5.4375 6.5625C6.25 7.5 7.5 8.125 8.875 8.125V6.875C7.6875 6.875 6.6875 6.25 6.1875 5.375L5.5625 4.375C5.2125 3.81875 4.5125 3.59375 3.90625 3.85L0.75 5.1875V8.125H2V6L3.125 5.5625Z" fill="white"/>
</svg>
