<?xml version="1.0" encoding="utf-8"?>
<!-- Generator: Adobe Illustrator 24.1.2, SVG Export Plug-In . SVG Version: 6.00 Build 0)  -->
<svg version="1.1" id="Layer_1" xmlns="http://www.w3.org/2000/svg" xmlns:xlink="http://www.w3.org/1999/xlink" x="0px" y="0px"
	 viewBox="0 0 518 518" style="enable-background:new 0 0 518 518;" xml:space="preserve">
<style type="text/css">
	.st0{fill:#FFFFFF;}
</style>
<g>
	<path class="st0" d="M259,0C116.2,0,0,116.2,0,259s116.2,259,259,259s259-116.2,259-259S401.8,0,259,0z M281.9,383.1h-49.5v-46.2
		h49.5L281.9,383.1z M314,257.8c-14.6,10.9-30.2,19.7-33.3,39.7v12.9h-45.9l0-15.3c2-29.6,16-42.8,29.5-53.3
		c13.3-10.5,24.8-18.3,24.8-36.7c0-20.7-10.9-30.6-28.9-30.6c-24.4,0-34.6,20-35,44.2h-49.9c1-48.6,32.9-83.9,82.5-83.9
		c64.2,0,84.6,39.4,84.6,65.5C342.5,233.4,328.6,246.6,314,257.8L314,257.8z"/>
</g>
</svg>
