<svg width="32" height="32" viewBox="0 0 32 32" fill="none" xmlns="http://www.w3.org/2000/svg">
<path d="M28 7.9987H23.7733L21.3333 5.33203H13.3333V7.9987H20.16L22.6 10.6654H28V26.6654H6.66667V14.6654H4V26.6654C4 28.132 5.2 29.332 6.66667 29.332H28C29.4667 29.332 30.6667 28.132 30.6667 26.6654V10.6654C30.6667 9.1987 29.4667 7.9987 28 7.9987ZM10.6667 18.6654C10.6667 22.3454 13.6533 25.332 17.3333 25.332C21.0133 25.332 24 22.3454 24 18.6654C24 14.9854 21.0133 11.9987 17.3333 11.9987C13.6533 11.9987 10.6667 14.9854 10.6667 18.6654ZM17.3333 14.6654C19.5333 14.6654 21.3333 16.4654 21.3333 18.6654C21.3333 20.8654 19.5333 22.6654 17.3333 22.6654C15.1333 22.6654 13.3333 20.8654 13.3333 18.6654C13.3333 16.4654 15.1333 14.6654 17.3333 14.6654ZM6.66667 7.9987H10.6667V5.33203H6.66667V1.33203H4V5.33203H0V7.9987H4V11.9987H6.66667V7.9987Z" fill="white"/>
</svg>
