<svg width="18" height="18" viewBox="0 0 18 18" fill="none" xmlns="http://www.w3.org/2000/svg">
<path fill-rule="evenodd" clip-rule="evenodd" d="M17.3327 9.0013C17.3327 13.6037 13.6017 17.3346 8.99935 17.3346C4.39698 17.3346 0.666016 13.6037 0.666016 9.0013C0.666016 4.39893 4.39698 0.667969 8.99935 0.667969C13.6017 0.667969 17.3327 4.39893 17.3327 9.0013ZM8.20435 8.20633V5.63299C8.20435 5.52859 8.22491 5.42521 8.26486 5.32876C8.30482 5.23231 8.36337 5.14467 8.4372 5.07084C8.51102 4.99702 8.59866 4.93846 8.69511 4.89851C8.79157 4.85856 8.89495 4.83799 8.99935 4.83799C9.10375 4.83799 9.20713 4.85856 9.30358 4.89851C9.40003 4.93846 9.48767 4.99702 9.5615 5.07084C9.63532 5.14467 9.69388 5.23231 9.73383 5.32876C9.77378 5.42521 9.79435 5.52859 9.79435 5.63299V8.20633H12.3677C12.4721 8.20633 12.5755 8.22689 12.6719 8.26684C12.7684 8.30679 12.856 8.36535 12.9298 8.43918C13.0037 8.513 13.0622 8.60064 13.1022 8.69709C13.1421 8.79355 13.1627 8.89692 13.1627 9.00133C13.1627 9.10573 13.1421 9.2091 13.1022 9.30556C13.0622 9.40201 13.0037 9.48965 12.9298 9.56348C12.856 9.6373 12.7684 9.69586 12.6719 9.73581C12.5755 9.77576 12.4721 9.79633 12.3677 9.79633H9.79435V12.3697C9.79435 12.4741 9.77378 12.5774 9.73383 12.6739C9.69388 12.7703 9.63532 12.858 9.5615 12.9318C9.48767 13.0056 9.40003 13.0642 9.30358 13.1041C9.20713 13.1441 9.10375 13.1647 8.99935 13.1647C8.89495 13.1647 8.79157 13.1441 8.69511 13.1041C8.59866 13.0642 8.51102 13.0056 8.4372 12.9318C8.36337 12.858 8.30482 12.7703 8.26486 12.6739C8.22491 12.5774 8.20435 12.4741 8.20435 12.3697V9.79633H5.63101C5.52661 9.79633 5.42323 9.77576 5.32678 9.73581C5.23033 9.69586 5.14269 9.6373 5.06886 9.56348C4.99504 9.48965 4.93648 9.40201 4.89653 9.30556C4.85658 9.2091 4.83601 9.10573 4.83601 9.00133C4.83601 8.89692 4.85658 8.79355 4.89653 8.69709C4.93648 8.60064 4.99504 8.513 5.06886 8.43918C5.14269 8.36535 5.23033 8.30679 5.32678 8.26684C5.42323 8.22689 5.52661 8.20633 5.63101 8.20633H8.20435Z" fill="#05AE4B"/>
</svg>
