<svg width="16" height="14" viewBox="0 0 16 14" fill="none" xmlns="http://www.w3.org/2000/svg">
<path d="M13.5975 2.1818C13.0821 1.61948 12.1512 1.58483 11.5307 2.20533L5.45572 8.28033C5.29861 8.43744 5.29861 8.63757 5.45572 8.79468C5.61283 8.95178 5.81295 8.95178 5.97006 8.79468L10.9951 3.76967C11.288 3.47678 11.7628 3.47678 12.0557 3.76967C12.3486 4.06257 12.3486 4.53744 12.0557 4.83033L7.03072 9.85534C6.28783 10.5982 5.13795 10.5982 4.39506 9.85534C3.65217 9.11244 3.65217 7.96257 4.39506 7.21968L10.4701 1.14467C11.6457 -0.0309737 13.5562 -0.0692286 14.6921 1.15616C15.8563 2.33247 15.8906 4.23368 14.6701 5.366L7.55572 12.4803C5.91283 14.1232 3.33795 14.1232 1.69506 12.4803C0.0521674 10.8374 0.0521674 8.26257 1.69506 6.61967L7.77006 0.544675C8.06295 0.251782 8.53783 0.251782 8.83072 0.544675C9.12361 0.837568 9.12361 1.31244 8.83072 1.60533L2.75572 7.68034C1.69861 8.73744 1.69861 10.3626 2.75572 11.4197C3.81283 12.4768 5.43795 12.4768 6.49506 11.4197L13.6201 4.29467C13.6277 4.28699 13.6356 4.27948 13.6436 4.27214C14.2059 3.75668 14.2406 2.82584 13.6201 2.20533C13.6124 2.19765 13.6049 2.18981 13.5975 2.1818Z" fill="#05AE4B"/>
</svg>
