<svg width="18" height="26" viewBox="0 0 18 26" fill="none" xmlns="http://www.w3.org/2000/svg">
<path d="M14.5148 11.6887L14.5148 11.6887C14.1362 11.3101 13.7258 10.9758 13.291 10.6852L15.6756 1.135C15.7218 0.950352 15.6805 0.754924 15.5635 0.604582L15.5632 0.604105C15.4459 0.454289 15.2662 0.366406 15.0756 0.366406H2.6099C2.41936 0.366406 2.23955 0.454256 2.12242 0.604373C2.00538 0.754394 1.96373 0.949864 2.00988 1.1349L2.00989 1.13493L4.39538 10.6916C2.24343 12.131 0.821484 14.5815 0.821484 17.3602C0.821484 21.784 4.42046 25.3825 8.84415 25.3825C13.2663 25.3825 16.8632 21.7839 16.8632 17.3602C16.8632 15.2179 16.0285 13.203 14.5148 11.6887ZM13.6392 12.5632L13.6393 12.5633C14.9206 13.8444 15.6256 15.5474 15.6256 17.3602C15.6261 21.1017 12.5834 24.1454 8.84387 24.1454C5.10227 24.1454 2.05824 21.1016 2.05824 17.3602C2.05824 13.6203 5.10222 10.5772 8.84387 10.5772H8.84388H8.84389H8.8439H8.8439H8.84391H8.84392H8.84393H8.84394H8.84395H8.84395H8.84396H8.84397H8.84398H8.84399H8.84399H8.844H8.84401H8.84402H8.84403H8.84403H8.84404H8.84405H8.84406H8.84406H8.84407H8.84408H8.84409H8.8441H8.8441H8.84411H8.84412H8.84413H8.84413H8.84414H8.84415H8.84416H8.84417H8.84417H8.84418H8.84419H8.8442H8.84421H8.84421H8.84422H8.84423H8.84424H8.84424H8.84425H8.84426H8.84427H8.84428H8.84428H8.84429H8.8443H8.84431H8.84432H8.84432H8.84433H8.84434H8.84435H8.84436H8.84436H8.84437H8.84438H8.84439H8.8444H8.84441H8.84441H8.84442H8.84443C10.0482 10.5772 11.2027 10.8902 12.2176 11.4742C12.2531 11.4998 12.2898 11.5197 12.325 11.5355C12.7979 11.8193 13.2393 12.163 13.6392 12.5632ZM3.40166 1.60374H14.2836L12.1719 10.0607C11.1405 9.58955 10.0118 9.34018 8.84443 9.34018H8.84443H8.84442H8.84441H8.8444H8.8444H8.84439H8.84438H8.84437H8.84437H8.84436H8.84435H8.84434H8.84434H8.84433H8.84432H8.84431H8.84431H8.8443H8.84429H8.84428H8.84428H8.84427H8.84426H8.84425H8.84425H8.84424H8.84423H8.84422H8.84422H8.84421H8.8442H8.84419H8.84418H8.84418H8.84417H8.84416H8.84415H8.84415H8.84414H8.84413H8.84413H8.84412H8.84411H8.8441H8.8441H8.84409H8.84408H8.84407H8.84406H8.84406H8.84405H8.84404H8.84403H8.84403H8.84402H8.84401H8.844H8.84399H8.84399H8.84398H8.84397H8.84396H8.84395H8.84395H8.84394H8.84393H8.84392H8.84391H8.8439H8.8439H8.84389H8.84388C7.6565 9.34018 6.5289 9.60068 5.51389 10.0657L3.40166 1.60374Z" fill="#05AE4B" stroke="#05AE4B" stroke-width="0.4"/>
<path d="M9.64194 12.9563L9.64218 12.9567L10.6403 14.9804L12.8726 15.3045C12.8727 15.3045 12.8728 15.3045 12.8729 15.3045C13.2096 15.3525 13.486 15.585 13.5922 15.9083L13.5923 15.9086C13.6982 16.2329 13.6121 16.5843 13.3675 16.8226L9.64194 12.9563ZM9.64194 12.9563C9.49028 12.6508 9.18388 12.4602 8.84312 12.4602H8.84312H8.84311H8.84311H8.8431H8.8431H8.84309H8.84309H8.84308H8.84308H8.84307H8.84307H8.84306H8.84306H8.84305H8.84305H8.84304H8.84304H8.84303H8.84303H8.84302H8.84302H8.84301H8.84301H8.843H8.843H8.84299H8.84299H8.84299H8.84298H8.84298H8.84297H8.84297H8.84296H8.84296H8.84295H8.84295H8.84294H8.84294H8.84293H8.84293H8.84292H8.84292H8.84291H8.84291H8.84291H8.8429H8.8429H8.84289H8.84289H8.84288H8.84288H8.84287H8.84287H8.84286H8.84286H8.84285H8.84285H8.84285H8.84284H8.84284H8.84283H8.84283H8.84282H8.84282H8.84281H8.84281H8.8428H8.8428H8.8428H8.84279H8.84279H8.84278H8.84278H8.84277H8.84277H8.84276H8.84276H8.84275H8.84275H8.84275H8.84274H8.84274H8.84273H8.84273H8.84272H8.84272H8.84271H8.84271H8.84271H8.8427H8.8427H8.84269H8.84269H8.84268H8.84268H8.84267H8.84267H8.84267H8.84266H8.84266H8.84265H8.84265H8.84264H8.84264H8.84264H8.84263H8.84263H8.84262H8.84262H8.84261H8.84261H8.8426H8.8426H8.8426H8.84259H8.84259H8.84258H8.84258H8.84257H8.84257H8.84257H8.84256H8.84256H8.84255H8.84255H8.84254H8.84254H8.84254H8.84253H8.84253H8.84252H8.84252H8.84251H8.84251H8.84251H8.8425H8.8425H8.84249H8.84249H8.84248H8.84248H8.84248H8.84247H8.84247H8.84246H8.84246H8.84245H8.84245H8.84245H8.84244H8.84244H8.84243H8.84243H8.84242H8.84242H8.84242H8.84241H8.84241H8.8424H8.8424H8.8424H8.84239H8.84239H8.84238H8.84238H8.84237H8.84237H8.84237H8.84236H8.84236H8.84235H8.84235H8.84235H8.84234H8.84234H8.84233H8.84233H8.84232H8.84232H8.84232H8.84231H8.84231H8.8423H8.8423H8.8423H8.84229H8.84229H8.84228H8.84228H8.84227H8.84227H8.84227H8.84226H8.84226H8.84225H8.84225H8.84225H8.84224H8.84224H8.84223H8.84223H8.84223H8.84222H8.84222H8.84221H8.84221H8.8422H8.8422H8.8422H8.84219H8.84219H8.84218H8.84218H8.84218H8.84217H8.84217H8.84216H8.84216H8.84215H8.84215H8.84215H8.84214H8.84214H8.84213H8.84213H8.84213H8.84212H8.84212H8.84211H8.84211H8.84211H8.8421H8.8421H8.84209H8.84209H8.84209H8.84208H8.84208H8.84207H8.84207H8.84206H8.84206H8.84206H8.84205H8.84205H8.84204H8.84204H8.84204H8.84203H8.84203H8.84202H8.84202H8.84202H8.84201H8.84201H8.842H8.842H8.842H8.84199H8.84199H8.84198H8.84198H8.84197H8.84197H8.84197H8.84196H8.84196H8.84195H8.84195H8.84195H8.84194H8.84194H8.84193H8.84193H8.84193H8.84192H8.84192H8.84191H8.84191H8.84191H8.8419H8.8419H8.84189H8.84189H8.84188H8.84188H8.84188H8.84187H8.84187H8.84186H8.84186H8.84186H8.84185H8.84185H8.84184H8.84184H8.84184H8.84183H8.84183H8.84182H8.84182H8.84181H8.84181H8.84181H8.8418H8.8418H8.84179H8.84179H8.84179H8.84178H8.84178H8.84177H8.84177H8.84177H8.84176H8.84176H8.84175H8.84175H8.84174H8.84174H8.84174H8.84173H8.84173H8.84172H8.84172H8.84172H8.84171H8.84171H8.8417H8.8417H8.84169H8.84169H8.84169H8.84168H8.84168H8.84167H8.84167H8.84167H8.84166H8.84166H8.84165H8.84165H8.84164H8.84164H8.84164H8.84163H8.84163H8.84162H8.84162H8.84162H8.84161H8.84161H8.8416H8.8416H8.84159H8.84159H8.84159H8.84158H8.84158H8.84157H8.84157H8.84157H8.84156H8.84156H8.84155H8.84155H8.84154H8.84154H8.84154H8.84153H8.84153H8.84152H8.84152H8.84151H8.84151H8.84151H8.8415H8.8415H8.84149H8.84149H8.84148H8.84148H8.84148H8.84147H8.84147H8.84146H8.84146H8.84145H8.84145H8.84145H8.84144H8.84144H8.84143H8.84143H8.84142H8.84142H8.84142H8.84141H8.84141H8.8414H8.8414H8.84139H8.84139H8.84138H8.84138H8.84138H8.84137H8.84137H8.84136H8.84136H8.84135H8.84135H8.84135H8.84134H8.84134H8.84133H8.84133H8.84132H8.84132H8.84131H8.84131H8.84131H8.8413H8.8413H8.84129H8.84129H8.84128H8.84128H8.84127H8.84127H8.84127H8.84126H8.84126H8.84125H8.84125H8.84124H8.84124H8.84123H8.84123H8.84123H8.84122H8.84122H8.84121H8.84121H8.8412H8.8412H8.84119H8.84119H8.84118H8.84118H8.84118H8.84117H8.84117H8.84116H8.84116H8.84115H8.84115H8.84114H8.84114H8.84113H8.84113H8.84113H8.84112H8.84112H8.84111H8.84111H8.8411H8.8411H8.84109H8.84109H8.84108H8.84108H8.84107H8.84107H8.84106H8.84106H8.84105H8.84105H8.84105H8.84104H8.84104H8.84103H8.84103H8.84102H8.84102H8.84101H8.84101H8.841H8.841H8.84099H8.84099H8.84098H8.84098H8.84097H8.84097H8.84096H8.84096H8.84096H8.84095H8.84095H8.84094H8.84094H8.84093H8.84093H8.84092H8.84092H8.84091H8.84091H8.8409H8.8409H8.84089L8.84089 12.4602L8.84025 12.4602M9.64194 12.9563L8.84025 12.4602M5.93521 18.3993L4.32009 16.8236C4.32001 16.8235 4.31993 16.8234 4.31985 16.8234C4.07564 16.5865 3.98862 16.2352 4.0941 15.9106L5.93521 18.3993ZM5.93521 18.3993L5.55231 20.6325C5.55231 20.6325 5.55231 20.6325 5.55231 20.6325L5.93521 18.3993ZM8.84025 12.4602C8.49936 12.4612 8.19396 12.6533 8.04396 12.9592M8.84025 12.4602L8.04396 12.9592M8.04396 12.9592C8.04392 12.9593 8.04388 12.9593 8.04384 12.9594M8.04396 12.9592L8.04384 12.9594M8.04384 12.9594L7.04629 14.9804L4.81541 15.3042C4.81532 15.3043 4.81522 15.3043 4.81512 15.3043L4.81503 15.3043L4.84376 15.5022M8.04384 12.9594L4.09414 15.9105L4.28434 15.9724C4.36637 15.7196 4.58065 15.5399 4.84376 15.5022M4.84376 15.5022L7.17909 15.1632L4.84376 15.5022ZM11.7519 18.3987L13.3673 16.8227L5.74943 20.6663C5.70507 20.9249 5.8083 21.1828 6.01952 21.3387L5.90063 21.4996C5.90066 21.4996 5.90068 21.4996 5.90071 21.4996C6.05713 21.6152 6.24221 21.6749 6.42994 21.6749C6.56725 21.6749 6.70523 21.6427 6.83276 21.5784L6.8331 21.5782L8.89052 20.5359L10.8375 21.5597C10.8376 21.5598 10.8377 21.5599 10.8378 21.5599C11.1395 21.7199 11.5005 21.695 11.7773 21.4946C12.0541 21.2942 12.1911 20.9592 12.1337 20.6219L12.1336 20.6216L11.7519 18.3987ZM10.6552 17.7408L10.655 17.7409C10.5096 17.883 10.4432 18.0875 10.4774 18.2879L10.4774 18.288L10.7955 20.1404L9.18402 19.2929C9.18392 19.2928 9.18382 19.2928 9.18372 19.2927C9.00568 19.1985 8.79407 19.198 8.61614 19.288L8.616 19.2881L6.88764 20.1639L7.20936 18.288L7.20939 18.2879C7.24357 18.0877 7.17736 17.8828 7.03165 17.7408C7.03163 17.7407 7.0316 17.7407 7.03157 17.7407L5.686 16.4279L7.54599 16.1577C7.54599 16.1577 7.546 16.1577 7.546 16.1577C7.74765 16.1285 7.92154 16.0019 8.01175 15.8198L8.01188 15.8195L8.84389 14.1339L9.67517 15.8192L9.67533 15.8195C9.76558 16.0017 9.93981 16.1282 10.141 16.1575L10.1411 16.1575L12.0013 16.4276L10.6552 17.7408Z" fill="#05AE4B" stroke="#05AE4B" stroke-width="0.4"/>
</svg>
