<svg width="28" height="24" viewBox="0 0 28 24" fill="none" xmlns="http://www.w3.org/2000/svg">
<path d="M13.5112 0.820187C14.1621 1.47106 14.1621 2.52634 13.5112 3.17721L6.35637 10.332H25.666C26.5865 10.332 27.3327 11.0782 27.3327 11.9987C27.3327 12.9192 26.5865 13.6654 25.666 13.6654H6.35637L13.5112 20.8202C14.1621 21.4711 14.1621 22.5263 13.5112 23.1772C12.8603 23.8281 11.805 23.8281 11.1542 23.1772L1.15417 13.1772C0.84161 12.8646 0.666016 12.4407 0.666016 11.9987C0.666016 11.5567 0.84161 11.1327 1.15417 10.8202L11.1542 0.820187C11.805 0.169313 12.8603 0.169313 13.5112 0.820187Z" fill="#002733"/>
</svg>
