<svg width="28" height="22" viewBox="0 0 28 22" fill="none" xmlns="http://www.w3.org/2000/svg">
<path d="M9.75413 8.08657L9.75414 8.08647C9.85534 6.39683 10.7829 4.99201 12.1221 4.29223V1.62555C12.1221 1.28379 12.3988 1.00703 12.7406 1.00703H15.3603C15.7017 1.00703 15.9788 1.28371 15.9788 1.62555V4.26816C17.3944 4.97443 18.3722 6.43474 18.3722 8.12354C18.3722 8.15175 18.3703 8.17985 18.3666 8.20775C18.4797 14.2059 20.6453 16.2864 20.6864 16.326C20.687 16.3265 20.6872 16.3267 20.6869 16.3265L20.6875 16.327C20.8759 16.4981 20.9424 16.7691 20.8501 17.0084C20.8501 17.0084 20.8501 17.0085 20.8501 17.0085L20.6635 16.9365C20.6013 17.0981 20.447 17.2055 20.274 17.2055L9.75413 8.08657ZM9.75413 8.08657C9.56675 11.2433 8.95815 13.3208 8.4097 14.6015C8.13545 15.242 7.87579 15.6843 7.69035 15.9635C7.59766 16.103 7.52305 16.2026 7.47356 16.2666C7.46276 16.2806 7.45137 16.2951 7.44122 16.3081C7.43066 16.3216 7.42146 16.3334 7.41566 16.341L7.41541 16.3413C7.41032 16.348 7.39949 16.3622 7.39077 16.3768C7.38812 16.3812 7.38355 16.3892 7.37896 16.3994C7.37837 16.4007 7.37747 16.4027 7.37638 16.4053M9.75413 8.08657L7.37638 16.4053M7.37638 16.4053C7.37438 16.4087 7.37222 16.4125 7.3699 16.4167C7.35757 16.4385 7.34069 16.4694 7.32198 16.5063C7.28523 16.5789 7.23845 16.6807 7.20628 16.7866C7.17688 16.8833 7.14684 17.0229 7.18572 17.1509C7.20744 17.2224 7.25148 17.2923 7.32621 17.3415C7.39814 17.3889 7.48103 17.4055 7.56207 17.4055H7.56463H7.56718H7.56971H7.57224H7.57474H7.57724H7.57972H7.58219H7.58465H7.58709H7.58952H7.59194H7.59434H7.59673H7.59911H7.60147H7.60382H7.60616H7.60849H7.6108H7.6131H7.61539H7.61766H7.61993H7.62217H7.62441H7.62664H7.62885H7.63105H7.63323H7.63541H7.63757H7.63972H7.64185H7.64398H7.64609H7.64819H7.65028H7.65235H7.65442H7.65647H7.65851H7.66053H7.66255H7.66455H7.66654H7.66852H7.67049H7.67244H7.67439H7.67632H7.67824H7.68014H7.68204H7.68392H7.6858H7.68766H7.68951H7.69135H7.69317H7.69499H7.69679H7.69858H7.70037H7.70213H7.70389H7.70564H7.70738H7.7091H7.71081H7.71252H7.71421H7.71589H7.71755H7.71921H7.72086H7.7225H7.72412H7.72573H7.72734H7.72893H7.73051H7.73208H7.73364H7.73519H7.73673H7.73826H7.73978H7.74128H7.74278H7.74427H7.74574H7.74721H7.74866H7.75011H7.75154H7.75296H7.75438H7.75578H7.75717H7.75856H7.75993H7.76129H7.76264H7.76399H7.76532H7.76664H7.76795H7.76926H7.77055H7.77183H7.7731H7.77437H7.77562H7.77687H7.7781H7.77933H7.78054H7.78175H7.78294H7.78413H7.78531H7.78647H7.78763H7.78878H7.78992H7.79105H7.79217H7.79328H7.79438H7.79548H7.79656H7.79764H7.7987H7.79976H7.80081H7.80185H7.80288H7.8039H7.80491H7.80591H7.80691H7.80789H7.80887H7.80984H7.8108H7.81175H7.81269H7.81363H7.81455H7.81547H7.81638H7.81727H7.81817H7.81905H7.81992H7.82079H7.82165H7.8225H7.82334H7.82417H7.825H7.82582H7.82662H7.82743H7.82822H7.829H7.82978H7.83055H7.83131H7.83206H7.83281H7.83355H7.83428H7.835H7.83571H7.83642H7.83712H7.83781H7.8385H7.83917H7.83984H7.8405H7.84116H7.8418H7.84244H7.84308H7.8437H7.84432H7.84493H7.84553H7.84613H7.84672H7.8473H7.84787H7.84844H7.849H7.84956H7.8501H7.85064H7.85085H7.85086H7.85087H7.85089H7.85091H7.85093H7.85095H7.85098H7.85101H7.85105H7.85108H7.85112H7.85117H7.85118H7.85121H7.85126H7.85131H7.85137H7.85143H7.85149H7.85155H7.85162H7.85169H7.8517H7.85176H7.85183H7.85191H7.85199H7.85207H7.85215H7.85222H7.85224H7.85233H7.85242H7.85251H7.85261H7.85271H7.85273H7.85281H7.85291H7.85302H7.85313H7.85324H7.85335H7.85346H7.85358H7.85369H7.85374H7.85381H7.85394H7.85406H7.85419H7.85423H7.85431H7.85444H7.85457H7.85471H7.85472H7.85484H7.85498H7.85511H7.8552H7.85525H7.85539H7.85554H7.85567H7.85568H7.85583H7.85597H7.85612H7.85614H7.85627H7.85642H7.85657H7.85659H7.85673H7.85688H7.85704H7.85705H7.8572H7.85736H7.85749H7.85751H7.85768H7.85784H7.85794H7.858H7.85816H7.85833H7.85837H7.85849H7.85866H7.8588H7.85883H7.859H7.85916H7.85922H7.85933H7.8595H7.85963H7.85968H7.85985H7.86002H7.86004H7.86019H7.86037H7.86044H7.86054H7.86072H7.86084H7.86089H7.86107H7.86123H7.86124H7.86142H7.86159H7.86162H7.86177H7.86195H7.86199H7.86213H7.8623H7.86237H7.86248H7.86266H7.86273H7.86284H7.86301H7.86309H7.86319H7.86337H7.86345H7.86355H7.86373H7.8638H7.8639H7.86408H7.86414H7.86426H7.86444H7.86447H7.86461H7.86479H7.8648H7.86497H7.86513H7.86514H7.86532H7.86545H7.86549H7.86567H7.86576H7.86584H7.86602H7.86607H7.86619H7.86636H7.86637H7.86653H7.86667H7.86671H7.86688H7.86696H7.86705H7.86722H7.86725H7.86739H7.86753H7.86755H7.86772H7.8678H7.86789H7.86805H7.86807H7.86822H7.86833H7.86838H7.86854H7.86859H7.8687H7.86884H7.86886H7.86902H7.86909H7.86918H7.86933H7.86949H7.86957H7.86965H7.8698H7.86995H7.87003H7.87011H7.87025H7.8704H7.87047H7.87055H7.87068H7.87069H7.87084H7.87088H7.87098H7.87109H7.87112H7.87126H7.87128H7.8714H7.87147H7.87153H7.87166H7.8718H7.87184H7.87193H7.87202H7.87206H7.87219H7.87231H7.87236H7.87243H7.87252H7.87255H7.87268H7.87279H7.87283H7.87291H7.87298H7.87302H7.87312H7.87324H7.87326H7.87335H7.8734H7.87345H7.87352H7.87355H7.87365H7.87375H7.87377H7.87385H7.87389H7.87394H7.874H7.87403H7.87411H7.87421H7.87429H7.87431H7.87437H7.87441H7.87445H7.8745H7.87453H7.87458H7.8746H7.87467H7.87474H7.87482H7.87487H7.87489H7.87493H7.87495H7.87498H7.87502H7.87504H7.87507H7.87509H7.87513H7.87518H7.87522H7.87527H7.87531H7.87534H7.87537H7.8754H7.87542H7.87548L7.37638 16.4053ZM17.1276 8.1089L17.1276 8.10965C17.189 12.4046 18.2361 14.8971 19.0204 16.1684L9.03628 16.1687C9.76918 14.9106 10.7332 12.4745 10.9894 8.16031C11.0962 6.37377 12.4276 5.05097 14.0637 5.05097C15.7211 5.05097 17.0769 6.37182 17.1333 8.01634C17.129 8.04748 17.1273 8.07843 17.1276 8.1089ZM13.3594 2.24408H14.742V3.86915C14.5216 3.83344 14.2953 3.81392 14.064 3.81392C13.8226 3.81392 13.5876 3.83597 13.3594 3.87541V2.24408Z" fill="#5AB3A8" stroke="#5AB3A8" stroke-width="0.4"/>
<path d="M16.462 17.3391C16.1205 17.3391 15.8435 17.6161 15.8435 17.9576C15.8435 18.894 15.0815 19.656 14.1453 19.656C13.2092 19.656 12.4472 18.894 12.4472 17.9576C12.4472 17.6162 12.1705 17.3391 11.8287 17.3391C11.4868 17.3391 11.2102 17.6162 11.2102 17.9576C11.2102 19.5764 12.5265 20.8931 14.1453 20.8931C15.7642 20.8931 17.0805 19.5767 17.0805 17.9576C17.0805 17.6161 16.8035 17.3391 16.462 17.3391Z" fill="#5AB3A8" stroke="#5AB3A8" stroke-width="0.4"/>
<path d="M5.88106 13.783L5.88109 13.783C6.156 13.9861 6.21354 14.3731 6.01166 14.6482L6.01129 14.6487C5.88994 14.8129 5.70214 14.8997 5.51337 14.8997C5.38573 14.8997 5.25665 14.86 5.14659 14.7791L5.14624 14.7789C3.97532 13.9142 3.27656 12.5309 3.27656 11.0781C3.27656 9.6692 3.90987 8.35765 5.01284 7.48128C5.28009 7.2684 5.66921 7.3134 5.88169 7.58065M5.88106 13.783L5.88169 7.58065M5.88106 13.783C5.0115 13.1409 4.51361 12.1556 4.51361 11.0779C4.51361 10.0476 4.97573 9.09022 5.78229 8.44961L5.78234 8.44958M5.88106 13.783L5.78234 8.44958M5.88169 7.58065C6.09461 7.84816 6.04939 8.23734 5.78234 8.44958M5.88169 7.58065L5.78234 8.44958" fill="#5AB3A8" stroke="#5AB3A8" stroke-width="0.4"/>
<path d="M3.90312 6.49896L3.90318 6.4989C4.16087 6.27503 4.18858 5.88421 3.96456 5.62636L3.96455 5.62634C3.74053 5.36855 3.35006 5.34056 3.09208 5.56493C1.49289 6.95328 0.575391 8.96256 0.575391 11.0778C0.575391 13.2593 1.54358 15.312 3.23012 16.7086L3.2304 16.7088C3.34528 16.8036 3.48516 16.8508 3.62441 16.8508C3.80212 16.8508 3.97885 16.7742 4.10092 16.627L4.10113 16.6267C4.31863 16.3635 4.28216 15.9739 4.01902 15.756C2.61625 14.594 1.81244 12.8892 1.81244 11.0775C1.81244 9.32113 2.57432 7.65244 3.90312 6.49896Z" fill="#5AB3A8" stroke="#5AB3A8" stroke-width="0.4"/>
<path d="M22.0507 14.6698C22.1328 14.7808 22.2594 14.8397 22.3878 14.8397C22.4743 14.8397 22.5613 14.8129 22.6361 14.7579C23.7575 13.9304 24.4266 12.6073 24.4266 11.2184L22.178 7.84534C22.034 8.02615 22.0641 8.28954 22.2447 8.43323C23.099 9.11347 23.5892 10.1288 23.5892 11.2186C23.5892 12.3595 23.0605 13.4042 22.1389 14.0844C21.9528 14.2217 21.9132 14.4839 22.0507 14.6698ZM22.0507 14.6698L21.89 14.7888M22.0507 14.6698L21.8899 14.7886C21.8899 14.7887 21.8899 14.7887 21.89 14.7888M21.89 14.7888C22.0113 14.9529 22.1987 15.0397 22.3878 15.0397C22.5158 15.0397 22.6446 14.9999 22.7546 14.9191L22.7549 14.9189C23.9271 14.0537 24.6266 12.671 24.6266 11.2184V11.2183C24.6263 9.81136 23.9933 8.49995 22.8908 7.62225M21.89 14.7888L22.8908 7.62225M22.8908 7.62225C22.6231 7.40877 22.2344 7.45433 22.0217 7.72049L22.0217 7.72049L22.0215 7.72076C21.8087 7.98804 21.8532 8.37725 22.1201 8.58969L22.8908 7.62225ZM23.3892 11.2186C23.3892 12.2957 22.8909 13.2807 22.0202 13.9234L22.1201 8.58971C22.9269 9.23211 23.3892 10.1899 23.3892 11.2186Z" fill="#5AB3A8" stroke="#5AB3A8" stroke-width="0.4"/>
<path d="M27.3281 11.2179C27.3284 9.10372 26.4106 7.09415 24.8109 5.70554L24.8108 5.70551C24.5526 5.48143 24.1623 5.50888 23.9383 5.7671C23.7145 6.02514 23.742 6.4156 23.9998 6.63953L23.9998 6.63958C25.3289 7.79336 26.0911 9.46207 26.0911 11.2181C26.0911 13.0307 25.2868 14.7354 23.8839 15.8959M27.3281 11.2179L27.1281 11.2179M27.3281 11.2179L27.1281 11.2179M27.3281 11.2179C27.3281 13.4008 26.3597 15.4532 24.6722 16.8493C24.5568 16.9451 24.4166 16.9912 24.2783 16.9912C24.1008 16.9912 23.9238 16.9145 23.8015 16.7671L23.8014 16.7669C23.5836 16.5038 23.6203 16.1137 23.8839 15.8959M27.1281 11.2179C27.1281 13.3409 26.1865 15.337 24.5447 16.6952C24.4669 16.7599 24.3723 16.7912 24.2783 16.7912C24.158 16.7912 24.0383 16.7393 23.9554 16.6394C23.8081 16.4614 23.833 16.1974 24.0112 16.0501M27.1281 11.2179C27.1284 9.16179 26.2358 7.20729 24.6798 5.85658C24.5048 5.70479 24.2409 5.72349 24.0894 5.89815C23.9379 6.07282 23.9566 6.33704 24.1309 6.48855C25.5037 7.68022 26.2911 9.40398 26.2911 11.2181C26.2911 13.0906 25.4599 14.8517 24.0112 16.0501M23.8839 15.8959L24.0112 16.0501M23.8839 15.8959C23.8838 15.896 23.8838 15.896 23.8838 15.896L24.0112 16.0501" fill="#5AB3A8" stroke="#5AB3A8" stroke-width="0.4"/>
</svg>
