<svg width="44" height="44" viewBox="0 0 44 44" fill="none" xmlns="http://www.w3.org/2000/svg">
<rect width="44" height="44" rx="5" fill="#5AB3A8" fill-opacity="0.2"/>
<path d="M29.2291 25.2617L26.6891 24.9717C26.0791 24.9017 25.4791 25.1117 25.0491 25.5417L23.2091 27.3817C20.3791 25.9417 18.0591 23.6317 16.6191 20.7917L18.4691 18.9417C18.8991 18.5117 19.1091 17.9117 19.0391 17.3017L18.7491 14.7817C18.6291 13.7717 17.7791 13.0117 16.7591 13.0117H15.0291C13.8991 13.0117 12.9591 13.9517 13.0291 15.0817C13.5591 23.6217 20.3891 30.4417 28.9191 30.9717C30.0491 31.0417 30.9891 30.1017 30.9891 28.9717V27.2417C30.9991 26.2317 30.2391 25.3817 29.2291 25.2617Z" fill="#5AB3A8"/>
</svg>
