<svg width="20" height="20" viewBox="0 0 20 20" fill="none" xmlns="http://www.w3.org/2000/svg">
<rect width="20" height="20" fill="white" fill-opacity="0.01"/>
<path fill-rule="evenodd" clip-rule="evenodd" d="M4.1625 4.16667H15.8375C16.7558 4.16667 17.5 4.9125 17.5 5.82833V15.8383C17.5 16.0566 17.457 16.2728 17.3734 16.4744C17.2899 16.6761 17.1674 16.8593 17.013 17.0136C16.8586 17.1679 16.6753 17.2903 16.4736 17.3738C16.2719 17.4572 16.0558 17.5001 15.8375 17.5H4.1625C3.72172 17.5 3.29898 17.325 2.98723 17.0134C2.67547 16.7018 2.50022 16.2791 2.5 15.8383V5.82833C2.5 4.91083 3.24333 4.16667 4.1625 4.16667ZM4.16667 7.5V15C4.16667 15.221 4.25446 15.433 4.41074 15.5893C4.56702 15.7455 4.77899 15.8333 5 15.8333H15C15.221 15.8333 15.433 15.7455 15.5893 15.5893C15.7455 15.433 15.8333 15.221 15.8333 15V7.5H4.16667ZM5 3.33333C5 3.11232 5.0878 2.90036 5.24408 2.74408C5.40036 2.5878 5.61232 2.5 5.83333 2.5C6.05435 2.5 6.26631 2.5878 6.42259 2.74408C6.57887 2.90036 6.66667 3.11232 6.66667 3.33333V4.16667H5V3.33333ZM13.3333 3.33333C13.3333 3.11232 13.4211 2.90036 13.5774 2.74408C13.7337 2.5878 13.9457 2.5 14.1667 2.5C14.3877 2.5 14.5996 2.5878 14.7559 2.74408C14.9122 2.90036 15 3.11232 15 3.33333V4.16667H13.3333V3.33333ZM5.83333 10.8333V9.16583H7.5V10.8333H5.83333ZM12.5 10.8333V9.16583H14.1667V10.8333H12.5ZM9.16667 10.8333V9.16583H10.8342V10.8333H9.16667ZM5.83333 14.1667V12.5H7.5V14.1667H5.83333ZM9.16667 14.1667V12.5H10.8342V14.1667H9.16667ZM12.5 14.1667V12.5H14.1667V14.1667H12.5Z" fill="#4C6870"/>
</svg>
