<svg width="24" height="24" viewBox="0 0 24 24" fill="none" xmlns="http://www.w3.org/2000/svg">
<path d="M4.2229 1.0598L4.223 1.06014L4.92811 3.4232H23.1166C23.2883 3.4232 23.4517 3.49806 23.5634 3.62869M4.2229 1.0598L21.6603 17.4262L21.4626 17.3959L21.6604 17.4259L23.6986 4.10062L23.6986 4.10059C23.7245 3.93101 23.675 3.75881 23.5634 3.62869M4.2229 1.0598C4.14808 0.810657 3.91908 0.639844 3.65879 0.639844M4.2229 1.0598L3.65879 0.639844M23.5634 3.62869L23.4115 3.7587L23.5632 3.62843C23.5633 3.62852 23.5634 3.6286 23.5634 3.62869ZM10.8609 20.1437L10.8608 20.1437C10.6614 19.9441 10.3978 19.8347 10.1165 19.8347H10.1162C9.53375 19.8347 9.05992 20.3083 9.05967 20.8897L10.8609 20.1437ZM10.8609 20.1437C11.0604 20.3432 11.1697 20.6076 11.1697 20.8897M10.8609 20.1437L11.1697 20.8897M3.65879 0.639844H0.790972M3.65879 0.639844H0.790972M0.790972 0.639844C0.465733 0.639844 0.202344 0.903233 0.202344 1.22847M0.790972 0.639844L0.202344 1.22847M0.202344 1.22847C0.202344 1.55371 0.465733 1.8171 0.790972 1.8171M0.202344 1.22847L0.790972 1.8171M0.790972 1.8171H3.2201M0.790972 1.8171H3.2201M3.2201 1.8171L7.90099 17.5032C7.90116 17.5038 7.90134 17.5044 7.90151 17.505L3.2201 1.8171ZM11.1697 20.8897C11.1697 21.4731 10.6962 21.947 10.1157 21.947M11.1697 20.8897L10.1157 21.947M10.1157 21.947C9.53385 21.947 9.05971 21.4728 9.05967 20.8898L10.1157 21.947ZM9.25361 17.9257L9.19483 17.7257H8.98636L9.04515 17.9257H9.25361ZM9.55123 18.9383C9.48682 18.9571 9.42371 18.979 9.36204 19.0038L9.3054 18.8111C9.36725 18.7869 9.43044 18.7652 9.49483 18.7464L9.55123 18.9383ZM12.1681 20.0161H12.0311V20.2161L12.2199 20.1499C12.204 20.1047 12.1868 20.0601 12.1681 20.0161ZM7.90358 17.5084L7.90401 17.5099L7.90358 17.5084ZM8.21471 14.3927L8.21465 14.3925C8.20236 14.3509 8.18577 14.3143 8.16865 14.2827L5.27935 4.60046H22.4311L20.573 16.7487H8.90726L8.21471 14.3927ZM7.90819 17.5241L8.45827 19.3951C8.10088 19.7907 7.88267 20.3151 7.88267 20.8892C7.88267 22.1214 8.88434 23.1238 10.116 23.1238C11.244 23.1238 12.1754 22.2815 12.324 21.1933H17.0388C17.1197 22.3514 18.0874 23.2689 19.2656 23.2689C20.4966 23.2689 21.4981 22.2673 21.4981 21.0361C21.4981 19.8048 20.4966 18.8033 19.2656 18.8033C18.4012 18.8033 17.6523 19.2974 17.2818 20.0161L7.90819 17.5241ZM7.92428 17.5557C7.92441 17.5559 7.92433 17.5558 7.92413 17.5555L7.92428 17.5557ZM19.2656 19.9808C19.8471 19.9808 20.3208 20.4545 20.3208 21.0363C20.3208 21.6182 19.8471 22.0919 19.2656 22.0919C18.6841 22.0919 18.2106 21.6182 18.2106 21.0363C18.2106 20.4544 18.6841 19.9808 19.2656 19.9808Z" fill="#5AB3A8" stroke="#5AB3A8" stroke-width="0.4"/>
</svg>
