<svg width="28" height="29" viewBox="0 0 28 29" fill="none" xmlns="http://www.w3.org/2000/svg">
<rect width="28" height="28" transform="translate(0 0.5)" fill="white" fill-opacity="0.01"/>
<path fill-rule="evenodd" clip-rule="evenodd" d="M13.9993 5.16797C8.85202 5.16797 4.66602 9.35397 4.66602 14.5013C4.66602 19.6486 8.85202 23.8346 13.9993 23.8346C19.1467 23.8346 23.3327 19.6486 23.3327 14.5013C23.3327 9.35397 19.1467 5.16797 13.9993 5.16797ZM13.9993 21.7603C12.0749 21.7578 10.23 20.9923 8.86919 19.6315C7.5084 18.2707 6.74282 16.4257 6.74035 14.5013C6.74282 12.5769 7.5084 10.7319 8.86919 9.37114C10.23 8.01035 12.0749 7.24477 13.9993 7.2423C15.9238 7.24477 17.7687 8.01035 19.1295 9.37114C20.4903 10.7319 21.2559 12.5769 21.2583 14.5013C21.2559 16.4257 20.4903 18.2707 19.1295 19.6315C17.7687 20.9923 15.9238 21.7578 13.9993 21.7603ZM15.0365 14.072V10.3573C15.0365 9.7868 14.5698 9.32013 13.9993 9.32013C13.4288 9.32013 12.9622 9.7868 12.9622 10.3585V14.506C12.9622 14.7953 13.0823 15.0555 13.2748 15.2445L15.8357 17.8041C16.0305 17.998 16.2941 18.1068 16.5689 18.1068C16.8437 18.1068 17.1074 17.998 17.3022 17.8041C17.4957 17.6094 17.6043 17.346 17.6043 17.0715C17.6043 16.7969 17.4957 16.5335 17.3022 16.3388L15.0365 14.072Z" fill="white"/>
</svg>
