<svg width="19" height="19" viewBox="0 0 19 19" fill="none" xmlns="http://www.w3.org/2000/svg">
<circle cx="9.5" cy="9.5" r="8.5" fill="#E42A2A" stroke="white" stroke-width="2"/>
<path fill-rule="evenodd" clip-rule="evenodd" d="M11.7551 6.24102L9.4998 8.49706L7.24305 6.24031C7.17557 6.17432 7.08483 6.13755 6.99045 6.13794C6.89607 6.13834 6.80564 6.17588 6.73872 6.24243L6.24289 6.73897C6.20894 6.77153 6.18188 6.81058 6.16331 6.85379C6.14474 6.897 6.13504 6.94351 6.13477 6.99054C6.13451 7.03758 6.14369 7.08418 6.16177 7.1276C6.17986 7.17102 6.20648 7.21037 6.24005 7.24331L8.4961 9.49864L6.24076 11.7554C6.17487 11.823 6.13822 11.9138 6.13875 12.0081C6.13928 12.1025 6.17695 12.1929 6.2436 12.2597L6.73943 12.7556C6.88535 12.9022 7.10493 12.8972 7.24376 12.7584L9.50051 10.5023L11.7558 12.7584C11.8234 12.8243 11.9142 12.8609 12.0086 12.8604C12.103 12.8599 12.1934 12.8222 12.2602 12.7556L12.7567 12.2597C12.7906 12.2271 12.8176 12.188 12.8361 12.1448C12.8546 12.1016 12.8643 12.055 12.8645 12.008C12.8647 11.961 12.8554 11.9144 12.8373 11.871C12.8191 11.8276 12.7925 11.7883 12.7588 11.7554L10.5021 9.49864L12.7588 7.24331C12.8248 7.17583 12.8616 7.08509 12.8612 6.9907C12.8608 6.89632 12.8233 6.80589 12.7567 6.73897L12.2609 6.24314C12.2277 6.20912 12.188 6.18203 12.1442 6.16343C12.1005 6.14482 12.0534 6.13508 12.0059 6.13477C11.9593 6.13515 11.9132 6.14473 11.8703 6.16296C11.8274 6.18119 11.7885 6.20772 11.7558 6.24102H11.7551Z" fill="white"/>
</svg>
