<?xml version="1.0" encoding="utf-8"?>
<!-- Generator: Adobe Illustrator 24.1.2, SVG Export Plug-In . SVG Version: 6.00 Build 0)  -->
<svg version="1.1" id="Layer_1" xmlns="http://www.w3.org/2000/svg" xmlns:xlink="http://www.w3.org/1999/xlink" x="0px" y="0px"
	 viewBox="0 0 532.6 468.7" style="enable-background:new 0 0 532.6 468.7;" xml:space="preserve">
<style type="text/css">
	.st0{fill:#FFFFFF;}
</style>
<g>
	<path class="st0" d="M267.1,303.5l87.9-94.6c10.1-10.6,9-26.9-1.1-37c-10.6-10.1-26.9-9-37,1.1l-68.9,74.5l-31.4-33.6
		c-10.1-10.6-26.3-11.2-37-1.1s-11.2,26.3-1.1,37l50.4,54.3C239.1,314.7,257,314.7,267.1,303.5L267.1,303.5z"/>
	<path class="st0" d="M489.4,173.6h-17.4C455.3,75,369,0,266,0S77.3,75,59.9,173.6H43.1C19.6,173.6,0,193.2,0,216.7V289
		c0,11.8,4.5,22.4,12.9,30.8c8.4,7.8,19,12.3,30.2,12.3h38.6c11.2,0,20.2-9,20.2-20.2v-103c0-90.2,73.4-163.5,163.5-163.5
		S429,118.7,429,208.9v140.6c0,37-30.2,67.2-67.2,67.2h-37c-2.8-11.8-12.9-20.2-25.8-20.2l-66.6,0c-15.1,0-26.9,12.3-26.9,26.9v18.5
		c0,15.1,12.3,26.9,26.9,26.9h67.8c12.3,0,22.4-9,25.8-20.2h37c54.3,0,99.1-44.2,99.1-99.1v-17.9h27.4c11.2,0,22.4-4.5,30.2-12.3
		c8.4-8.4,12.9-19,12.9-30.8l0-71.7C532.6,193.2,513.5,174.2,489.4,173.6L489.4,173.6z"/>
</g>
</svg>
