<svg width="17" height="17" viewBox="0 0 17 17" fill="none" xmlns="http://www.w3.org/2000/svg">
<circle cx="8.5" cy="8.5" r="7.5" fill="#05AE4B"/>
<path fill-rule="evenodd" clip-rule="evenodd" d="M10.7561 5.24297L8.50078 7.49901L6.24403 5.24226C6.17655 5.17627 6.08581 5.1395 5.99143 5.1399C5.89705 5.14029 5.80662 5.17783 5.7397 5.24439L5.24386 5.74093C5.20992 5.77349 5.18286 5.81253 5.16429 5.85574C5.14572 5.89896 5.13601 5.94546 5.13575 5.99249C5.13548 6.03953 5.14467 6.08614 5.16275 6.12956C5.18084 6.17297 5.20746 6.21232 5.24103 6.24526L7.49707 8.50059L5.24174 10.7573C5.17584 10.8249 5.1392 10.9157 5.13973 11.0101C5.14026 11.1045 5.17792 11.1949 5.24457 11.2617L5.74041 11.7575C5.88632 11.9041 6.10591 11.8992 6.24474 11.7603L8.50149 9.5043L10.7568 11.7603C10.8244 11.8262 10.9152 11.8629 11.0096 11.8624C11.104 11.8618 11.1943 11.8242 11.2612 11.7575L11.7577 11.2617C11.7916 11.2291 11.8186 11.19 11.8371 11.1467C11.8556 11.1035 11.8653 11.057 11.8655 11.01C11.8657 10.9629 11.8564 10.9163 11.8383 10.8729C11.8201 10.8295 11.7934 10.7902 11.7598 10.7573L9.50307 8.50059L11.7598 6.24526C11.8258 6.17778 11.8626 6.08704 11.8622 5.99266C11.8618 5.89828 11.8243 5.80785 11.7577 5.74093L11.2619 5.24509C11.2286 5.21107 11.189 5.18398 11.1452 5.16538C11.1014 5.14678 11.0544 5.13704 11.0069 5.13672C10.9602 5.1371 10.9142 5.14668 10.8713 5.16491C10.8283 5.18315 10.7895 5.20967 10.7568 5.24297H10.7561Z" fill="white"/>
</svg>
