<svg width="36" height="24" viewBox="0 0 36 24" fill="none" xmlns="http://www.w3.org/2000/svg">
<path d="M27.27 9L24.72 1.98C24.285 0.795 23.16 0 21.9 0H18V3H21.9L24.09 9H16.875L16.335 7.5H18V4.5H10.5V7.5H13.125L15.855 15H14.85C14.19 11.655 11.385 9.18 7.875 9.015C3.675 8.805 0 12.3 0 16.5C0 20.7 3.3 24 7.5 24C11.19 24 14.175 21.465 14.85 18H21.15C21.81 21.345 24.615 23.82 28.125 23.985C32.325 24.18 36 20.7 36 16.485C36 12.285 32.7 8.985 28.5 8.985H27.27V9ZM11.73 18C11.13 19.755 9.495 21 7.5 21C4.98 21 3 19.02 3 16.5C3 13.98 4.98 12 7.5 12C9.495 12 11.13 13.245 11.73 15H7.5V18H11.73ZM21.15 15H19.05L17.955 12H22.5C21.84 12.87 21.36 13.875 21.15 15ZM28.5 21C25.98 21 24 19.02 24 16.5C24 15.105 24.615 13.905 25.575 13.08L27.015 17.04L29.835 16.02L28.38 12.015C28.425 12.015 28.47 12 28.515 12C31.035 12 33.015 13.98 33.015 16.5C33.015 19.02 31.02 21 28.5 21Z" fill="white"/>
</svg>
