<svg width="68" height="68" viewBox="0 0 68 68" fill="none" xmlns="http://www.w3.org/2000/svg">
<path d="M33.9998 0.667969C15.5998 0.667969 0.666504 15.6013 0.666504 34.0013C0.666504 52.4013 15.5998 67.3346 33.9998 67.3346C52.3998 67.3346 67.3332 52.4013 67.3332 34.0013C67.3332 15.6013 52.3998 0.667969 33.9998 0.667969ZM33.9998 37.3346C32.1665 37.3346 30.6665 35.8346 30.6665 34.0013V20.668C30.6665 18.8346 32.1665 17.3346 33.9998 17.3346C35.8332 17.3346 37.3332 18.8346 37.3332 20.668V34.0013C37.3332 35.8346 35.8332 37.3346 33.9998 37.3346ZM37.3332 50.668H30.6665V44.0013H37.3332V50.668Z" fill="#E10202"/>
</svg>
