<svg width="12" height="13" viewBox="0 0 12 13" fill="none" xmlns="http://www.w3.org/2000/svg">
<path d="M3.08268 1.83268C3.08268 1.18835 3.60502 0.666016 4.24935 0.666016H7.74935C8.39368 0.666016 8.91602 1.18835 8.91602 1.83268V2.99935H10.0767C10.0803 2.99932 10.0839 2.99932 10.0875 2.99935H11.2493C11.5715 2.99935 11.8327 3.26052 11.8327 3.58268C11.8327 3.90485 11.5715 4.16602 11.2493 4.16602H10.6258L10.1199 11.2491C10.0763 11.8597 9.56827 12.3327 8.9562 12.3327H3.0425C2.43042 12.3327 1.92241 11.8597 1.8788 11.2491L1.37286 4.16602H0.749349C0.427183 4.16602 0.166016 3.90485 0.166016 3.58268C0.166016 3.26052 0.427183 2.99935 0.749349 2.99935H1.9112C1.91482 2.99932 1.91843 2.99932 1.92204 2.99935H3.08268V1.83268ZM4.24935 2.99935H7.74935V1.83268H4.24935V2.99935ZM2.5425 4.16602L3.0425 11.166H8.9562L9.4562 4.16602H2.5425ZM4.83268 5.33268C5.15485 5.33268 5.41602 5.59385 5.41602 5.91602V9.41602C5.41602 9.73818 5.15485 9.99935 4.83268 9.99935C4.51052 9.99935 4.24935 9.73818 4.24935 9.41602V5.91602C4.24935 5.59385 4.51052 5.33268 4.83268 5.33268ZM7.16602 5.33268C7.48818 5.33268 7.74935 5.59385 7.74935 5.91602V9.41602C7.74935 9.73818 7.48818 9.99935 7.16602 9.99935C6.84385 9.99935 6.58268 9.73818 6.58268 9.41602V5.91602C6.58268 5.59385 6.84385 5.33268 7.16602 5.33268Z" fill="#E42A2A"/>
</svg>
