<?xml version="1.0" encoding="utf-8"?>
<!-- Generator: Adobe Illustrator 24.1.2, SVG Export Plug-In . SVG Version: 6.00 Build 0)  -->
<svg version="1.1" id="Layer_1" xmlns="http://www.w3.org/2000/svg" xmlns:xlink="http://www.w3.org/1999/xlink" x="0px" y="0px"
	 viewBox="0 0 326.7 419.5" style="enable-background:new 0 0 326.7 419.5;" xml:space="preserve">
<style type="text/css">
	.st0{fill:#FFFFFF;}
</style>
<g>
	<path class="st0" d="M286.8,116h30.8c-2.2-3.8-4.8-7.2-7.9-10.3l-89.4-89.1c-3.1-3.1-6.5-5.8-10.3-7.9v72.6
		c0,9.3,3.7,18.2,10.3,24.8s15.5,10.3,24.8,10.3L286.8,116z"/>
	<path class="st0" d="M314.3,139.3h-70c-15.3-0.2-29.9-6.4-40.7-17.2c-10.8-10.9-16.9-25.5-16.9-40.9V0H58.3
		C42.9,0,28.2,6.1,17.3,16.9C6.3,27.8,0.1,42.5,0,57.9v303.3c0,15.5,6.1,30.3,17.1,41.3c10.9,10.9,25.8,17.1,41.2,17.1h210
		c15.5,0,30.3-6.1,41.2-17.1c10.9-10.9,17.1-25.8,17.1-41.3V147v-7.7L314.3,139.3z M81,279.3c-6.4,0-11.7-5.2-11.7-11.7
		c0-6.4,5.2-11.7,11.7-11.7h163.3c6.4,0,11.7,5.2,11.7,11.7c0,6.4-5.2,11.7-11.7,11.7H81z M174.3,326c0,3.1-1.2,6.1-3.4,8.2
		c-2.2,2.2-5.2,3.4-8.3,3.4h-81c-6.4,0-11.7-5.2-11.7-11.7c0-6.4,5.2-11.7,11.7-11.7h81.7c3.1,0,6.1,1.3,8.3,3.5s3.4,5.3,3.3,8.4
		L174.3,326z M244.3,197.6L244.3,197.6c6.4,0,11.7,5.2,11.7,11.7c0,6.4-5.2,11.7-11.7,11.7H81c-6.4,0-11.7-5.2-11.7-11.7
		c0-6.4,5.2-11.7,11.7-11.7L244.3,197.6z"/>
</g>
</svg>
