<svg width="12" height="12" viewBox="0 0 12 12" fill="none" xmlns="http://www.w3.org/2000/svg">
<path fill-rule="evenodd" clip-rule="evenodd" d="M0.67952 10.8194C0.657446 10.9273 0.662495 11.0391 0.694214 11.1447C0.725934 11.2503 0.783335 11.3463 0.861278 11.4243C0.939221 11.5022 1.03527 11.5596 1.14084 11.5913C1.24641 11.623 1.35819 11.6281 1.46619 11.606L4.00619 11.086L1.19952 8.27935L0.67952 10.8194ZM11.2289 2.47068L9.81552 1.05602C9.69159 0.932071 9.5444 0.833815 9.38241 0.766889C9.22041 0.699963 9.0468 0.665683 8.87152 0.666018C8.53019 0.666018 8.18885 0.796018 7.92819 1.05602L1.42352 7.56135L4.72352 10.8614L11.2282 4.35602C11.4781 4.10598 11.6186 3.7669 11.6186 3.41335C11.6186 3.0598 11.4781 2.72072 11.2282 2.47068H11.2289Z" fill="white"/>
</svg>
