<svg width="17" height="17" viewBox="0 0 17 17" fill="none" xmlns="http://www.w3.org/2000/svg">
<path d="M11.5774 0.910093C11.9028 0.584656 12.4305 0.584656 12.7559 0.910093L16.0893 4.24343C16.4147 4.56886 16.4147 5.0965 16.0893 5.42194L5.25592 16.2553C5.09964 16.4116 4.88768 16.4993 4.66667 16.4993H1.33333C0.873096 16.4993 0.5 16.1263 0.5 15.666V12.3327C0.5 12.1117 0.587797 11.8997 0.744078 11.7434L9.07724 3.41027L11.5774 0.910093ZM9.66667 5.17786L2.16667 12.6779V14.8327H4.32149L11.8215 7.33268L9.66667 5.17786ZM13 6.15417L14.3215 4.83268L12.1667 2.67786L10.8452 3.99935L13 6.15417Z" fill="#4C6870"/>
</svg>
