<svg width="25" height="24" viewBox="0 0 25 24" fill="none" xmlns="http://www.w3.org/2000/svg">
<rect width="24" height="24" transform="translate(0.5)" fill="white" fill-opacity="0.01"/>
<path d="M13.5 6.49168V16.0007C13.5 16.2659 13.3947 16.5203 13.2071 16.7078C13.0196 16.8953 12.7652 17.0007 12.5 17.0007C12.2348 17.0007 11.9805 16.8953 11.7929 16.7078C11.6054 16.5203 11.5 16.2659 11.5 16.0007V6.49168L10.284 7.69768C10.0873 7.89225 9.82173 8.00137 9.54502 8.00137C9.26832 8.00137 9.00278 7.89225 8.80602 7.69768C8.709 7.60196 8.63196 7.48791 8.57938 7.36217C8.5268 7.23642 8.49972 7.10148 8.49972 6.96518C8.49972 6.82889 8.5268 6.69395 8.57938 6.5682C8.63196 6.44246 8.709 6.32841 8.80602 6.23268L11.761 3.30368C11.9578 3.10912 12.2233 3 12.5 3C12.7767 3 13.0423 3.10912 13.239 3.30368L16.194 6.23368C16.602 6.63768 16.602 7.29368 16.194 7.69768C15.9973 7.89225 15.7317 8.00137 15.455 8.00137C15.1783 8.00137 14.9128 7.89225 14.716 7.69768L13.5 6.49068V6.49168ZM9.50002 9.00068V11.0007H7.50003C7.49803 11.0007 7.50003 18.9917 7.50003 18.9917C7.50003 18.9957 17.494 19.0007 17.494 19.0007C17.497 19.0007 17.5 11.0097 17.5 11.0097C17.5 11.0037 15.5 11.0007 15.5 11.0007V9.00068H17.5C18.605 9.00068 19.5 9.90268 19.5 11.0097V18.9917C19.5 20.1017 18.603 21.0007 17.494 21.0007H7.50603C6.97373 20.9999 6.4635 20.7879 6.08739 20.4112C5.71127 20.0345 5.50002 19.524 5.50003 18.9917V11.0107C5.49871 10.7472 5.54947 10.4861 5.64939 10.2422C5.74931 9.99844 5.89642 9.77678 6.08226 9.59C6.26811 9.40322 6.48904 9.25501 6.73234 9.15388C6.97565 9.05274 7.23654 9.00068 7.50003 9.00068H9.50002Z" fill="white"/>
</svg>
