<svg width="21" height="20" viewBox="0 0 21 20" fill="none" xmlns="http://www.w3.org/2000/svg">
<path d="M9.6689 0.752591C10.0478 0.415803 10.6187 0.415803 10.9976 0.752591L19.9976 8.75259C20.4104 9.11951 20.4476 9.75158 20.0807 10.1644C19.7138 10.5771 19.0817 10.6143 18.6689 10.2474L18.3333 9.94907V17.5C18.3333 18.6046 17.4378 19.5 16.3333 19.5H4.33326C3.22869 19.5 2.33326 18.6046 2.33326 17.5V9.94907L1.99763 10.2474C1.58484 10.6143 0.952771 10.5771 0.585853 10.1644C0.218935 9.75158 0.256116 9.11951 0.668899 8.75259L9.6689 0.752591ZM4.33326 8.17129V17.5H7.33326V12.5C7.33326 11.9477 7.78098 11.5 8.33326 11.5H12.3333C12.8855 11.5 13.3333 11.9477 13.3333 12.5V17.5H16.3333V8.17129L10.3333 2.83795L4.33326 8.17129ZM11.3333 17.5V13.5H9.33326V17.5H11.3333Z" fill="black"/>
</svg>
