<svg width="22" height="20" viewBox="0 0 22 20" fill="none" xmlns="http://www.w3.org/2000/svg">
<path fill-rule="evenodd" clip-rule="evenodd" d="M19.9996 16.5014V10.6714L20.0396 10.7114C20.4296 11.1014 21.0696 11.1014 21.4596 10.7114C21.8496 10.3214 21.8496 9.68139 21.4596 9.29139L13.1206 0.960391C12.558 0.397977 11.7951 0.0820312 10.9996 0.0820312C10.2041 0.0820312 9.44115 0.397977 8.87857 0.960391L0.53957 9.29139C0.14957 9.68139 0.14957 10.3214 0.53957 10.7114C0.92957 11.1014 1.56957 11.1014 1.95957 10.7114L1.99957 10.6714V16.5014C1.99957 17.297 2.31564 18.0601 2.87825 18.6227C3.44086 19.1853 4.20392 19.5014 4.99957 19.5014L9 19.5014V12.9985C9 11.894 9.89543 10.9985 11 10.9985C12.1046 10.9985 13 11.894 13 12.9985V19.5014L16.9996 19.5014C17.7952 19.5014 18.5583 19.1853 19.1209 18.6227C19.6835 18.0601 19.9996 17.297 19.9996 16.5014Z" fill="#CCD4D6"/>
</svg>
