<svg width="52" height="69" viewBox="0 0 52 69" fill="none" xmlns="http://www.w3.org/2000/svg">
<rect width="52" height="69" fill="white" fill-opacity="0.01"/>
<path fill-rule="evenodd" clip-rule="evenodd" d="M4.33366 0.539062H34.6746C35.1843 0.539189 35.6888 0.641605 36.1579 0.840185C36.6269 1.03877 37.051 1.32943 37.4046 1.69481L50.3981 15.1175C51.0788 15.8209 51.459 16.7596 51.4587 17.7362V64.6875C51.4587 65.6883 51.0592 66.6481 50.3481 67.3557C49.637 68.0634 48.6726 68.4609 47.667 68.4609H4.33366C3.32805 68.4609 2.36362 68.0634 1.65255 67.3557C0.94147 66.6481 0.541992 65.6883 0.541992 64.6875V4.3125C0.541992 3.31172 0.94147 2.35193 1.65255 1.64428C2.36362 0.93662 3.32805 0.539063 4.33366 0.539062Z" fill="white" stroke="#091E42" stroke-opacity="0.08"/>
<path fill-rule="evenodd" clip-rule="evenodd" d="M23.4727 40.7891L30.2522 34.0422C30.3558 33.939 30.4794 33.8578 30.6155 33.8035C30.7515 33.7493 30.8973 33.7231 31.0438 33.7265C31.1904 33.7299 31.3347 33.7629 31.4681 33.8235C31.6015 33.884 31.7211 33.9709 31.8197 34.0788L36.1108 38.7773V43.3054H15.8893L20.1793 39.036C20.3824 38.8342 20.6577 38.7209 20.9447 38.7209C21.2317 38.7209 21.507 38.8342 21.7101 39.036L23.4727 40.7891ZM19.2585 32.4045C18.3645 32.4045 17.5071 32.0511 16.875 31.4219C16.2428 30.7928 15.8877 29.9396 15.8877 29.0499C15.8877 28.1602 16.2428 27.307 16.875 26.6778C17.5071 26.0487 18.3645 25.6953 19.2585 25.6953C20.1525 25.6953 21.0099 26.0487 21.642 26.6778C22.2741 27.307 22.6293 28.1602 22.6293 29.0499C22.6293 29.9396 22.2741 30.7928 21.642 31.4219C21.0099 32.0511 20.1525 32.4045 19.2585 32.4045Z" fill="#05AE4B"/>
</svg>
