<svg width="18" height="18" viewBox="0 0 18 18" fill="none" xmlns="http://www.w3.org/2000/svg">
<path fill-rule="evenodd" clip-rule="evenodd" d="M0 1.995C0 0.893 0.893 0 1.995 0H16.005C17.107 0 18 0.893 18 1.995V16.005C18 16.5341 17.7898 17.0415 17.4157 17.4157C17.0415 17.7898 16.5341 18 16.005 18H1.995C1.46589 18 0.958457 17.7898 0.584322 17.4157C0.210187 17.0415 0 16.5341 0 16.005V1.995ZM7.5 13.5L6 12L3 15H15V12.3L12 9L7.5 13.5ZM5 7C5.53043 7 6.03914 6.78929 6.41421 6.41421C6.78929 6.03914 7 5.53043 7 5C7 4.46957 6.78929 3.96086 6.41421 3.58579C6.03914 3.21071 5.53043 3 5 3C4.46957 3 3.96086 3.21071 3.58579 3.58579C3.21071 3.96086 3 4.46957 3 5C3 5.53043 3.21071 6.03914 3.58579 6.41421C3.96086 6.78929 4.46957 7 5 7Z" fill="#002733" fill-opacity="0.5"/>
</svg>
