<svg width="18" height="18" viewBox="0 0 18 18" fill="none" xmlns="http://www.w3.org/2000/svg">
<path d="M8.99935 0.667969C4.39935 0.667969 0.666016 4.4013 0.666016 9.0013C0.666016 13.6013 4.39935 17.3346 8.99935 17.3346C13.5994 17.3346 17.3327 13.6013 17.3327 9.0013C17.3327 4.4013 13.5994 0.667969 8.99935 0.667969ZM8.99935 13.168C8.54102 13.168 8.16602 12.793 8.16602 12.3346V9.0013C8.16602 8.54297 8.54102 8.16797 8.99935 8.16797C9.45768 8.16797 9.83268 8.54297 9.83268 9.0013V12.3346C9.83268 12.793 9.45768 13.168 8.99935 13.168ZM9.83268 6.2013C9.83268 6.36699 9.69837 6.5013 9.53268 6.5013H8.46602C8.30033 6.5013 8.16602 6.36699 8.16602 6.2013V5.13464C8.16602 4.96895 8.30033 4.83464 8.46602 4.83464H9.53268C9.69837 4.83464 9.83268 4.96895 9.83268 5.13464V6.2013Z" fill="#4C6870" fill-opacity="0.5"/>
</svg>
