<svg width="20" height="20" viewBox="0 0 20 20" fill="none" xmlns="http://www.w3.org/2000/svg">
<rect width="20" height="20" fill="white" fill-opacity="0.01"/>
<path fill-rule="evenodd" clip-rule="evenodd" d="M10 17.5C8.1 17.5 5 10.2617 5 7.5C5 6.17392 5.52678 4.90215 6.46447 3.96447C7.40215 3.02678 8.67392 2.5 10 2.5C11.3261 2.5 12.5979 3.02678 13.5355 3.96447C14.4732 4.90215 15 6.17392 15 7.5C15 10.2617 11.9 17.5 10 17.5ZM10 10C10.3187 10 10.6342 9.93723 10.9286 9.81528C11.2231 9.69333 11.4906 9.51458 11.7159 9.28925C11.9412 9.06391 12.12 8.7964 12.2419 8.50198C12.3639 8.20756 12.4267 7.89201 12.4267 7.57333C12.4267 7.25466 12.3639 6.9391 12.2419 6.64469C12.12 6.35027 11.9412 6.08276 11.7159 5.85742C11.4906 5.63208 11.2231 5.45334 10.9286 5.33139C10.6342 5.20943 10.3187 5.14667 10 5.14667C9.35641 5.14667 8.73918 5.40233 8.28409 5.85742C7.829 6.31251 7.57333 6.92974 7.57333 7.57333C7.57333 8.21693 7.829 8.83416 8.28409 9.28925C8.73918 9.74433 9.35641 10 10 10Z" fill="#4C6870" fill-opacity="0.5"/>
</svg>
