<svg width="67" height="67" viewBox="0 0 67 67" fill="none" xmlns="http://www.w3.org/2000/svg">
<ellipse cx="12.374" cy="59.5641" rx="6.63964" ry="6.43909" fill="white"/>
<path d="M67 45.3447C67 56.0904 58.0556 64.8299 47.065 64.8299H29.173C25.467 64.8299 22.4663 61.8939 22.4663 58.2745C22.4663 54.6552 25.4701 51.7191 29.173 51.7191H47.065C50.6594 51.7191 53.5866 48.8611 53.5866 45.3447C53.5866 41.8315 50.6626 38.9703 47.065 38.9703H19.935C8.94121 38.9703 0 30.2277 0 19.4852C0 8.73946 8.9444 0 19.935 0H38.277C41.9799 0 44.9838 2.93603 44.9838 6.55538C44.9838 10.1747 41.9799 13.1108 38.277 13.1108H19.935C16.3406 13.1108 13.4134 15.9688 13.4134 19.4852C13.4134 22.9984 16.3374 25.8596 19.935 25.8596H47.065C58.0588 25.8596 67 34.6021 67 45.3447Z" fill="white"/>
<ellipse cx="56.3232" cy="6.47815" rx="6.63964" ry="6.43909" fill="white"/>
</svg>
