<svg width="16" height="14" viewBox="0 0 16 14" fill="none" xmlns="http://www.w3.org/2000/svg">
<path d="M0.5 1.95312C0.5 1.1247 1.17157 0.453125 2 0.453125H14C14.8284 0.453125 15.5 1.1247 15.5 1.95312V10.2031C15.5 11.0316 14.8284 11.7031 14 11.7031H10.5607L8.53033 13.7335C8.23744 14.0263 7.76256 14.0263 7.46967 13.7335L5.43934 11.7031H2C1.17157 11.7031 0.5 11.0316 0.5 10.2031V1.95312ZM14 1.95312H2V10.2031H5.75C5.94891 10.2031 6.13968 10.2821 6.28033 10.4228L8 12.1425L9.71967 10.4228C9.86032 10.2821 10.0511 10.2031 10.25 10.2031H14V1.95312ZM3.5 4.57812C3.5 4.16391 3.83579 3.82812 4.25 3.82812H11.75C12.1642 3.82812 12.5 4.16391 12.5 4.57812C12.5 4.99234 12.1642 5.32812 11.75 5.32812H4.25C3.83579 5.32812 3.5 4.99234 3.5 4.57812ZM3.5 7.57812C3.5 7.16391 3.83579 6.82812 4.25 6.82812H8.75C9.16421 6.82812 9.5 7.16391 9.5 7.57812C9.5 7.99234 9.16421 8.32812 8.75 8.32812H4.25C3.83579 8.32812 3.5 7.99234 3.5 7.57812Z" fill="#0065FF"/>
</svg>
