<?xml version="1.0" encoding="utf-8"?>
<!-- Generator: Adobe Illustrator 24.1.2, SVG Export Plug-In . SVG Version: 6.00 Build 0)  -->
<svg version="1.1" id="Layer_1" xmlns="http://www.w3.org/2000/svg" xmlns:xlink="http://www.w3.org/1999/xlink" x="0px" y="0px"
	 viewBox="0 0 503.4 503.4" style="enable-background:new 0 0 503.4 503.4;" xml:space="preserve">
<style type="text/css">
	.st0{fill-rule:evenodd;clip-rule:evenodd;fill:#FFFFFF;}
</style>
<g>
	<path class="st0" d="M486.6,210.6l-34.7-39.2v-57.1c0-31.9-30.8-62.7-62.7-62.7l-57.7,0l-39.2-34.7c-22.4-22.4-59.9-22.4-82.3,0
		l-39.2,34.7h-56.6c-31.9,0-62.7,30.8-62.7,62.7v57.1l-34.7,39.2c-22.4,22.4-22.4,59.9,0,82.3l34.7,39.2v57.1
		c0,31.9,30.8,62.7,62.7,62.7h57.1l39.2,34.7c22.4,22.4,59.9,22.4,82.3,0l39.2-34.7h57.1c31.9,0,62.7-30.8,62.7-62.7v-57.7
		l34.7-39.2C509,269.9,509,233,486.6,210.6L486.6,210.6z M156.2,175.8c0-26.3,21.3-47.6,47.6-47.6c26.3,0,47.6,21.3,47.6,47.6
		c0,26.3-21.3,47.6-47.6,47.6S156.2,202.2,156.2,175.8L156.2,175.8z M190.4,347.8c-2.2,2.8-5.6,4.5-9,4.5c-2.2,0-4.5-0.6-6.7-2.2
		c-5-3.9-5.6-10.6-2.2-15.7l145-190.4c3.9-5,10.6-5.6,15.7-2.2c5,3.9,5.6,10.6,2.2,15.7L190.4,347.8z M299,369
		c-26.3,0-47.6-21.3-47.6-47.6s21.3-47.6,47.6-47.6c26.3,0,47.6,21.3,47.6,47.6C346.6,347.8,325.4,369,299,369z"/>
	<path class="st0" d="M324.2,321.4c0,13.9-11.3,25.2-25.2,25.2c-13.9,0-25.2-11.3-25.2-25.2s11.3-25.2,25.2-25.2
		C313,296.2,324.2,307.5,324.2,321.4"/>
	<path class="st0" d="M229,175.8c0,13.9-11.3,25.2-25.2,25.2c-13.9,0-25.2-11.3-25.2-25.2c0-13.9,11.3-25.2,25.2-25.2
		C217.8,150.6,229,161.9,229,175.8"/>
</g>
</svg>
