<svg width="18" height="18" viewBox="0 0 18 18" fill="none" xmlns="http://www.w3.org/2000/svg">
<path fill-rule="evenodd" clip-rule="evenodd" d="M1 8H3V13H1V8ZM1.556 0.888C1.801 0.398 2.45 0 3.006 0H14.993C15.549 0 16.199 0.398 16.443 0.888L18 4H0L1.556 0.888ZM0 4H18V5H0V4ZM15 8H17V13H15V8ZM0 5C0.14 6.128 1.094 7 2.25 7C3.406 7 4.36 6.128 4.5 5H0ZM4.5 5C4.64 6.128 5.594 7 6.75 7C7.906 7 8.86 6.128 9 5H4.5ZM9 5C9.14 6.128 10.094 7 11.25 7C12.406 7 13.36 6.128 13.5 5H9ZM13.5 5C13.64 6.128 14.594 7 15.75 7C16.906 7 17.86 6.128 18 5H13.5ZM1 13H17V15.995C17.0013 16.5253 16.792 17.0343 16.4181 17.4103C16.0442 17.7863 15.5363 17.9984 15.006 18H2.994C2.73133 17.9996 2.47131 17.9474 2.22885 17.8464C1.98639 17.7453 1.76624 17.5975 1.58101 17.4112C1.39579 17.225 1.24912 17.004 1.14943 16.761C1.04973 16.518 0.998947 16.2577 1 15.995V13Z" fill="#CCD4D6"/>
</svg>
