<svg width="18" height="21" viewBox="0 0 18 21" fill="none" xmlns="http://www.w3.org/2000/svg">
<path d="M3.49976 0.5H14.4998C14.655 0.5 14.8081 0.536145 14.947 0.605573C15.0858 0.675 15.2066 0.775804 15.2998 0.9L17.9998 4.5V19.5C17.9998 19.7652 17.8944 20.0196 17.7069 20.2071C17.5193 20.3946 17.265 20.5 16.9998 20.5H0.999756C0.734539 20.5 0.480185 20.3946 0.292649 20.2071C0.105113 20.0196 -0.000244141 19.7652 -0.000244141 19.5V4.5L2.69976 0.9C2.7929 0.775804 2.91369 0.675 3.05254 0.605573C3.1914 0.536145 3.34451 0.5 3.49976 0.5ZM15.9998 6.5H1.99976V18.5H15.9998V6.5ZM15.4998 4.5L13.9998 2.5H3.99976L2.49976 4.5H15.4998ZM5.99976 8.5V10.5C5.99976 11.2956 6.31583 12.0587 6.87844 12.6213C7.44104 13.1839 8.20411 13.5 8.99976 13.5C9.79541 13.5 10.5585 13.1839 11.1211 12.6213C11.6837 12.0587 11.9998 11.2956 11.9998 10.5V8.5H13.9998V10.5C13.9998 11.8261 13.473 13.0979 12.5353 14.0355C11.5976 14.9732 10.3258 15.5 8.99976 15.5C7.67367 15.5 6.4019 14.9732 5.46422 14.0355C4.52654 13.0979 3.99976 11.8261 3.99976 10.5V8.5H5.99976Z" fill="black" fill-opacity="0.3"/>
</svg>
