<svg width="15" height="14" viewBox="0 0 15 14" fill="none" xmlns="http://www.w3.org/2000/svg">
<path d="M7.4987 0.667969C7.95893 0.667969 8.33203 1.02241 8.33203 1.45964V6.20964H13.332C13.7923 6.20964 14.1654 6.56408 14.1654 7.00131C14.1654 7.43853 13.7923 7.79297 13.332 7.79297H8.33203V12.543C8.33203 12.9802 7.95893 13.3346 7.4987 13.3346C7.03846 13.3346 6.66536 12.9802 6.66536 12.543V7.79297H1.66536C1.20513 7.79297 0.832031 7.43853 0.832031 7.00131C0.832031 6.56408 1.20513 6.20964 1.66536 6.20964H6.66536V1.45964C6.66536 1.02241 7.03846 0.667969 7.4987 0.667969Z" fill="white"/>
</svg>
