<svg width="39" height="39" viewBox="0 0 39 39" fill="none" xmlns="http://www.w3.org/2000/svg">
<rect width="39" height="39" rx="5" fill="#5AB3A8" fill-opacity="0.2"/>
<path d="M19.5 12.832C19.9603 12.832 20.3334 13.2051 20.3334 13.6654V18.6654H25.3334C25.7936 18.6654 26.1667 19.0385 26.1667 19.4987C26.1667 19.9589 25.7936 20.332 25.3334 20.332H20.3334V25.332C20.3334 25.7923 19.9603 26.1654 19.5 26.1654C19.0398 26.1654 18.6667 25.7923 18.6667 25.332V20.332H13.6667C13.2065 20.332 12.8334 19.9589 12.8334 19.4987C12.8334 19.0385 13.2065 18.6654 13.6667 18.6654H18.6667V13.6654C18.6667 13.2051 19.0398 12.832 19.5 12.832Z" fill="#5AB3A8"/>
</svg>
