<svg width="20" height="20" viewBox="0 0 20 20" fill="none" xmlns="http://www.w3.org/2000/svg">
<path fill-rule="evenodd" clip-rule="evenodd" d="M10.4974 0.5H16.6674C18.3242 0.5 19.6674 1.84315 19.6674 3.5V9.67C19.6667 10.4654 19.3501 11.2279 18.7874 11.79L11.7874 18.79C10.6161 19.9598 8.71863 19.9598 7.54736 18.79L1.37736 12.62C0.207547 11.4487 0.207547 9.55127 1.37736 8.38L8.37736 1.38C8.93943 0.81723 9.70198 0.5007 10.4974 0.5ZM10.6674 6.5C10.6674 8.15685 12.0105 9.5 13.6674 9.5C15.3242 9.5 16.6674 8.15685 16.6674 6.5C16.6674 4.84315 15.3242 3.5 13.6674 3.5C12.0105 3.5 10.6674 4.84315 10.6674 6.5Z" fill="#CCD4D6"/>
</svg>
