<?xml version="1.0" encoding="utf-8"?>
<!-- Generator: Adobe Illustrator 24.1.2, SVG Export Plug-In . SVG Version: 6.00 Build 0)  -->
<svg version="1.1" id="Layer_1" xmlns="http://www.w3.org/2000/svg" xmlns:xlink="http://www.w3.org/1999/xlink" x="0px" y="0px"
	 viewBox="0 0 392 392" style="enable-background:new 0 0 392 392;" xml:space="preserve">
<g>
	<path d="M196,0C87.9,0,0,87.9,0,196s87.9,196,196,196s196-87.9,196-196S304.1,0,196,0z M196,90.2c35.3,0,64.4,30.2,64.4,67.2
		s-29.1,67.2-64.4,67.2c-35.3,0-64.4-30.2-64.4-67.2S160.7,90.2,196,90.2z M196,369.6c-45.4,0-88.5-17.4-121-49.3
		c33-44.2,76.2-68.3,121-68.3s87.9,24.1,121,68.3C284.5,352.2,241.4,369.6,196,369.6z"/>
</g>
</svg>
