<svg width="20" height="20" viewBox="0 0 20 20" fill="none" xmlns="http://www.w3.org/2000/svg">
<circle cx="10" cy="10" r="10" fill="#CDEFDB"/>
<path d="M9.77263 5.54C10.5886 5.54 11.2406 5.764 11.7286 6.212C12.2246 6.66 12.4726 7.272 12.4726 8.048C12.4726 8.856 12.2166 9.464 11.7046 9.872C11.1926 10.28 10.5126 10.484 9.66463 10.484L9.61663 11.432H8.42863L8.36863 9.548H8.76463C9.54063 9.548 10.1326 9.444 10.5406 9.236C10.9566 9.028 11.1646 8.632 11.1646 8.048C11.1646 7.624 11.0406 7.292 10.7926 7.052C10.5526 6.812 10.2166 6.692 9.78463 6.692C9.35263 6.692 9.01263 6.808 8.76463 7.04C8.51663 7.272 8.39263 7.596 8.39263 8.012H7.10863C7.10863 7.532 7.21663 7.104 7.43263 6.728C7.64863 6.352 7.95663 6.06 8.35663 5.852C8.76463 5.644 9.23663 5.54 9.77263 5.54ZM9.00463 14.084C8.75663 14.084 8.54863 14 8.38063 13.832C8.21263 13.664 8.12863 13.456 8.12863 13.208C8.12863 12.96 8.21263 12.752 8.38063 12.584C8.54863 12.416 8.75663 12.332 9.00463 12.332C9.24463 12.332 9.44863 12.416 9.61663 12.584C9.78463 12.752 9.86863 12.96 9.86863 13.208C9.86863 13.456 9.78463 13.664 9.61663 13.832C9.44863 14 9.24463 14.084 9.00463 14.084Z" fill="#05AE4B"/>
</svg>
