<svg width="43" height="39" viewBox="0 0 43 39" fill="none" xmlns="http://www.w3.org/2000/svg">
<path d="M0 2C0 0.89543 0.895431 0 2 0H41C42.1046 0 43 0.895431 43 2V36.2431C43 37.603 41.672 38.5664 40.3792 38.1443L22.1208 32.1827C21.7174 32.051 21.2826 32.051 20.8792 32.1827L2.62077 38.1443C1.32799 38.5664 0 37.603 0 36.2431V2Z" fill="#FFD439"/>
<path d="M9.5248 21.07C9.03814 21.07 8.59814 20.9867 8.2048 20.82C7.81814 20.6533 7.51147 20.4133 7.2848 20.1C7.05814 19.7867 6.94147 19.4167 6.9348 18.99H8.4348C8.4548 19.2767 8.5548 19.5033 8.7348 19.67C8.92147 19.8367 9.1748 19.92 9.4948 19.92C9.82147 19.92 10.0781 19.8433 10.2648 19.69C10.4515 19.53 10.5448 19.3233 10.5448 19.07C10.5448 18.8633 10.4815 18.6933 10.3548 18.56C10.2281 18.4267 10.0681 18.3233 9.8748 18.25C9.68814 18.17 9.42814 18.0833 9.0948 17.99C8.64147 17.8567 8.27147 17.7267 7.9848 17.6C7.7048 17.4667 7.46147 17.27 7.2548 17.01C7.0548 16.7433 6.9548 16.39 6.9548 15.95C6.9548 15.5367 7.05814 15.1767 7.2648 14.87C7.47147 14.5633 7.76147 14.33 8.1348 14.17C8.50814 14.0033 8.9348 13.92 9.4148 13.92C10.1348 13.92 10.7181 14.0967 11.1648 14.45C11.6181 14.7967 11.8681 15.2833 11.9148 15.91H10.3748C10.3615 15.67 10.2581 15.4733 10.0648 15.32C9.87814 15.16 9.62814 15.08 9.3148 15.08C9.04147 15.08 8.82147 15.15 8.6548 15.29C8.4948 15.43 8.4148 15.6333 8.4148 15.9C8.4148 16.0867 8.4748 16.2433 8.5948 16.37C8.72147 16.49 8.8748 16.59 9.0548 16.67C9.24147 16.7433 9.50147 16.83 9.8348 16.93C10.2881 17.0633 10.6581 17.1967 10.9448 17.33C11.2315 17.4633 11.4781 17.6633 11.6848 17.93C11.8915 18.1967 11.9948 18.5467 11.9948 18.98C11.9948 19.3533 11.8981 19.7 11.7048 20.02C11.5115 20.34 11.2281 20.5967 10.8548 20.79C10.4815 20.9767 10.0381 21.07 9.5248 21.07ZM16.4486 21.07C15.7952 21.07 15.1952 20.9167 14.6486 20.61C14.1019 20.3033 13.6686 19.88 13.3486 19.34C13.0286 18.7933 12.8686 18.1767 12.8686 17.49C12.8686 16.81 13.0286 16.2 13.3486 15.66C13.6686 15.1133 14.1019 14.6867 14.6486 14.38C15.1952 14.0733 15.7952 13.92 16.4486 13.92C17.1086 13.92 17.7086 14.0733 18.2486 14.38C18.7952 14.6867 19.2252 15.1133 19.5386 15.66C19.8586 16.2 20.0186 16.81 20.0186 17.49C20.0186 18.1767 19.8586 18.7933 19.5386 19.34C19.2252 19.88 18.7952 20.3033 18.2486 20.61C17.7019 20.9167 17.1019 21.07 16.4486 21.07ZM16.4486 19.82C16.8686 19.82 17.2386 19.7267 17.5586 19.54C17.8786 19.3467 18.1286 19.0733 18.3086 18.72C18.4886 18.3667 18.5786 17.9567 18.5786 17.49C18.5786 17.0233 18.4886 16.6167 18.3086 16.27C18.1286 15.9167 17.8786 15.6467 17.5586 15.46C17.2386 15.2733 16.8686 15.18 16.4486 15.18C16.0286 15.18 15.6552 15.2733 15.3286 15.46C15.0086 15.6467 14.7586 15.9167 14.5786 16.27C14.3986 16.6167 14.3086 17.0233 14.3086 17.49C14.3086 17.9567 14.3986 18.3667 14.5786 18.72C14.7586 19.0733 15.0086 19.3467 15.3286 19.54C15.6552 19.7267 16.0286 19.82 16.4486 19.82ZM24.3001 21.07C23.6468 21.07 23.0468 20.9167 22.5001 20.61C21.9535 20.3033 21.5201 19.88 21.2001 19.34C20.8801 18.7933 20.7201 18.1767 20.7201 17.49C20.7201 16.81 20.8801 16.2 21.2001 15.66C21.5201 15.1133 21.9535 14.6867 22.5001 14.38C23.0468 14.0733 23.6468 13.92 24.3001 13.92C24.9601 13.92 25.5601 14.0733 26.1001 14.38C26.6468 14.6867 27.0768 15.1133 27.3901 15.66C27.7101 16.2 27.8701 16.81 27.8701 17.49C27.8701 18.1767 27.7101 18.7933 27.3901 19.34C27.0768 19.88 26.6468 20.3033 26.1001 20.61C25.5535 20.9167 24.9535 21.07 24.3001 21.07ZM24.3001 19.82C24.7201 19.82 25.0901 19.7267 25.4101 19.54C25.7301 19.3467 25.9801 19.0733 26.1601 18.72C26.3401 18.3667 26.4301 17.9567 26.4301 17.49C26.4301 17.0233 26.3401 16.6167 26.1601 16.27C25.9801 15.9167 25.7301 15.6467 25.4101 15.46C25.0901 15.2733 24.7201 15.18 24.3001 15.18C23.8801 15.18 23.5068 15.2733 23.1801 15.46C22.8601 15.6467 22.6101 15.9167 22.4301 16.27C22.2501 16.6167 22.1601 17.0233 22.1601 17.49C22.1601 17.9567 22.2501 18.3667 22.4301 18.72C22.6101 19.0733 22.8601 19.3467 23.1801 19.54C23.5068 19.7267 23.8801 19.82 24.3001 19.82ZM34.8817 21H33.4817L30.3117 16.21V21H28.9117V14.01H30.3117L33.4817 18.81V14.01H34.8817V21Z" fill="#002733"/>
</svg>
