<svg width="28" height="28" viewBox="0 0 28 28" fill="none" xmlns="http://www.w3.org/2000/svg">
<path d="M11.6517 12.4602C9.39538 12.4602 7.55977 14.2958 7.55977 16.5522C7.55977 18.8086 9.39511 20.6439 11.6517 20.6439C13.9084 20.6439 15.7437 18.8086 15.7437 16.5522C15.7437 14.2958 13.9081 12.4602 11.6517 12.4602ZM11.6517 19.4071C10.0778 19.4071 8.79681 18.1264 8.79681 16.5525C8.79681 14.9785 10.0778 13.6975 11.6517 13.6975C13.226 13.6975 14.5067 14.9785 14.5067 16.5525C14.5067 18.1264 13.2257 19.4071 11.6517 19.4071Z" fill="#05AE4B" stroke="#05AE4B" stroke-width="0.4"/>
<path d="M3.45954 12.4602C3.11778 12.4602 2.84102 12.7369 2.84102 13.0787V20.0251C2.84102 20.3665 3.11769 20.6436 3.45954 20.6436C3.80139 20.6436 4.07806 20.3665 4.07806 20.0251V13.0787C4.07806 12.7369 3.8013 12.4602 3.45954 12.4602Z" fill="#05AE4B" stroke="#05AE4B" stroke-width="0.4"/>
<path d="M19.7115 12.4602C19.3701 12.4602 19.093 12.7368 19.093 13.0787V20.0251C19.093 20.3666 19.37 20.6436 19.7115 20.6436C20.053 20.6436 20.33 20.3666 20.33 20.0251V13.0787C20.33 12.7369 20.0533 12.4602 19.7115 12.4602Z" fill="#05AE4B" stroke="#05AE4B" stroke-width="0.4"/>
<path d="M5.48299 5.75837V7.6284H3.80801C3.46624 7.6284 3.18948 7.90517 3.18948 8.24693V10.3483H1.31501C0.973245 10.3483 0.696484 10.625 0.696484 10.9668V22.1406C0.696484 22.482 0.973158 22.7591 1.31501 22.7591H21.8C22.1415 22.7591 22.4185 22.4821 22.4185 22.1406V20.0393H24.2933C24.6348 20.0393 24.9118 19.7622 24.9118 19.4208V17.5507H26.5865C26.928 17.5507 27.205 17.2737 27.205 16.9322V5.75837V5.75813C27.2046 5.41652 26.9277 5.13984 26.5862 5.13984H6.10151C5.75975 5.13984 5.48299 5.41661 5.48299 5.75837ZM1.93353 21.5221V11.5853H21.1815V19.4102C21.1813 19.4135 21.1812 19.417 21.1812 19.4208C21.1812 19.4245 21.1813 19.4281 21.1815 19.4315V21.5221H1.93353ZM23.6745 18.8022H22.4183V10.9668C22.4183 10.6249 22.1411 10.3483 21.7997 10.3483H4.42653V8.86546H23.6745V18.8022ZM25.9677 16.3137H24.9115V8.24693C24.9115 7.90508 24.6344 7.6284 24.293 7.6284H6.72003V6.3769H25.9677V16.3137Z" fill="#05AE4B" stroke="#05AE4B" stroke-width="0.4"/>
</svg>
