<?xml version="1.0" encoding="utf-8"?>
<!-- Generator: Adobe Illustrator 24.1.2, SVG Export Plug-In . SVG Version: 6.00 Build 0)  -->
<svg version="1.1" id="Capa_1" xmlns="http://www.w3.org/2000/svg" xmlns:xlink="http://www.w3.org/1999/xlink" x="0px" y="0px"
	 viewBox="0 0 30 29.3" style="enable-background:new 0 0 30 29.3;" xml:space="preserve">
<style type="text/css">
	.st0{fill:#FFFFFF;}
</style>
<g>
	<g>
		<path class="st0" d="M26.6,13.5c-0.1-1.1-0.3-2.2-0.7-3.2l2.7-2.2l-4.4-5.5l-2.7,2.2c-0.9-0.6-1.9-1.1-3-1.4V0h-7v3.4
			C10.3,3.8,9.3,4.3,8.3,5L5.6,2.9L1.3,8.4l2.8,2.1c-0.4,1-0.6,2.1-0.7,3.2L0,14.6l1.6,6.8L4,20.8c1.2-1.2,2.3-2.3,3.7-3.7
			C5.8,12.1,9.6,6.7,15,6.7c4.3,0,7.8,3.5,7.8,7.8c0,5.3-5.2,9.1-10.2,7.4c-0.4,0.4-4.6,4.6-5.2,5.2l4.6,2.2l1.5-3.3
			c1.1,0.1,2.1,0.1,3.2,0l1.6,3.2l6.3-3.1L23,22.9c0.8-0.7,1.4-1.6,2-2.5l3.5,0.8l1.5-6.9L26.6,13.5z"/>
	</g>
</g>
<g class="st1">
	<g>
		<path class="st0" d="M20,12.5l-0.5-1.2l-3,3l-1.3-1.3l3-3l-1.2-0.5c-4.9-1.9-9.3,3.4-6.8,7.8c-6.6,6.6-0.9,1-8.8,8.8l2.3,2.3
			c4.6-4.6,0.1-0.1,8.9-8.9C17,21.6,21.8,17.1,20,12.5z"/>
	</g>
</g>
</svg>
