<?xml version="1.0" encoding="utf-8"?>
<!-- Generator: Adobe Illustrator 24.1.2, SVG Export Plug-In . SVG Version: 6.00 Build 0)  -->
<svg version="1.1" id="Layer_1" xmlns="http://www.w3.org/2000/svg" xmlns:xlink="http://www.w3.org/1999/xlink" x="0px" y="0px"
	 viewBox="0 0 21.5 20.6" style="enable-background:new 0 0 21.5 20.6;" xml:space="preserve">
<style type="text/css">
	.st0{fill:#FFFFFF;fill-opacity:1.000000e-02;}
	.st1{fill-rule:evenodd;clip-rule:evenodd;fill:#FFC400;}
</style>
<rect x="-5.3" y="-5.3" class="st0" width="32" height="32"/>
<path class="st1" d="M10.8,17.7l-5.2,2.7c-0.2,0.1-0.5,0.2-0.7,0.1c-0.2,0-0.5-0.1-0.7-0.3c-0.2-0.1-0.4-0.3-0.5-0.6
	c-0.1-0.2-0.1-0.5-0.1-0.7l1-5.8L0.4,9.1C0.2,9,0.1,8.7,0,8.5C0,8.3,0,8,0.1,7.8c0.1-0.2,0.2-0.4,0.4-0.6C0.7,7,0.9,6.9,1.1,6.9L7,6
	l2.6-5.3c0.1-0.2,0.3-0.4,0.5-0.5C10.3,0.1,10.5,0,10.8,0c0.2,0,0.5,0.1,0.7,0.2c0.2,0.1,0.4,0.3,0.5,0.5L14.6,6l5.8,0.8
	c0.2,0,0.5,0.1,0.7,0.3c0.2,0.2,0.3,0.4,0.4,0.6c0.1,0.2,0.1,0.5,0,0.7c-0.1,0.2-0.2,0.5-0.4,0.6l-4.2,4.1l1,5.8
	c0,0.2,0,0.5-0.1,0.7c-0.1,0.2-0.2,0.4-0.5,0.6c-0.2,0.1-0.4,0.2-0.7,0.3c-0.2,0-0.5,0-0.7-0.1L10.8,17.7z"/>
</svg>
