<svg width="14" height="18" viewBox="0 0 14 18" fill="none" xmlns="http://www.w3.org/2000/svg">
<path d="M6.99946 3.4375C3.15685 3.4375 0.0410156 6.55334 0.0410156 10.3959C0.0410156 14.2386 3.14912 17.3544 6.99946 17.3544C10.8421 17.3544 13.9579 14.2386 13.9579 10.3959C13.9579 6.55334 10.8421 3.4375 6.99946 3.4375ZM6.99946 15.8081C4.00733 15.8081 1.58734 13.3881 1.58734 10.3959C1.58734 7.40382 4.00733 4.98382 6.99946 4.98382C9.9916 4.98382 12.4116 7.40382 12.4116 10.3959C12.4116 13.3881 9.9916 15.8081 6.99946 15.8081Z" fill="#05AE4B"/>
<path d="M2.95343 10.3931C2.78775 10.3931 2.65235 10.5276 2.66378 10.6929C2.71591 11.4468 2.96396 12.176 3.38572 12.8072C3.86318 13.5217 4.5418 14.0787 5.33577 14.4075C6.12974 14.7364 7.00341 14.8224 7.84629 14.6548C8.68917 14.4871 9.4634 14.0733 10.0711 13.4656C10.6788 12.8579 11.0926 12.0837 11.2603 11.2408C11.4279 10.3979 11.3419 9.52428 11.013 8.7303C10.6841 7.93633 10.1272 7.25771 9.41263 6.78025C8.78142 6.35849 8.05226 6.11044 7.29837 6.05831C7.13307 6.04688 6.99859 6.18228 6.99859 6.34796V10.0931C6.99859 10.2588 6.86428 10.3931 6.69859 10.3931H2.95343Z" fill="#05AE4B"/>
<rect x="10.3555" y="5.69922" width="2.54805" height="1.57113" rx="0.3" transform="rotate(-54.9208 10.3555 5.69922)" fill="#05AE4B"/>
<rect width="2.54804" height="1.57113" rx="0.3" transform="matrix(-0.574708 -0.818359 -0.818359 0.574707 3.9375 5.69922)" fill="#05AE4B"/>
<rect width="4.15989" height="1.40906" rx="0.3" transform="matrix(1 0 0 -1 4.91797 2.05859)" fill="#05AE4B"/>
<rect width="2.11277" height="1.57114" transform="matrix(0 -1 -1 0 7.78516 4.16797)" fill="#05AE4B"/>
</svg>
