<svg width="161" height="63" viewBox="0 0 161 63" fill="none" xmlns="http://www.w3.org/2000/svg">
<path d="M35.5449 2C35.5449 0.89543 36.4404 0 37.5449 0H123.454C124.559 0 125.454 0.895431 125.454 2V60.4328C125.454 61.7357 124.228 62.6908 122.965 62.3721L80.9887 51.7834C80.6676 51.7024 80.3314 51.7024 80.0103 51.7834L38.0341 62.3721C36.7708 62.6908 35.5449 61.7357 35.5449 60.4328V2Z" fill="#FFD439"/>
<path d="M44.4499 21.4028V25.7228C44.4499 26.1961 44.5732 26.5595 44.8199 26.8128C45.0665 27.0595 45.4132 27.1828 45.8599 27.1828C46.3132 27.1828 46.6632 27.0595 46.9099 26.8128C47.1565 26.5595 47.2799 26.1961 47.2799 25.7228V21.4028H48.6899V25.7128C48.6899 26.3061 48.5599 26.8095 48.2999 27.2228C48.0465 27.6295 47.7032 27.9361 47.2699 28.1428C46.8432 28.3495 46.3665 28.4528 45.8399 28.4528C45.3199 28.4528 44.8465 28.3495 44.4199 28.1428C43.9999 27.9361 43.6665 27.6295 43.4199 27.2228C43.1732 26.8095 43.0499 26.3061 43.0499 25.7128V21.4028H44.4499ZM56.0125 28.3828H54.6125L51.4425 23.5928V28.3828H50.0425V21.3928H51.4425L54.6125 26.1928V21.3928H56.0125V28.3828ZM59.8361 21.4028C60.5694 21.4028 61.2127 21.5461 61.7661 21.8328C62.3261 22.1195 62.7561 22.5295 63.0561 23.0628C63.3627 23.5895 63.5161 24.2028 63.5161 24.9028C63.5161 25.6028 63.3627 26.2161 63.0561 26.7428C62.7561 27.2628 62.3261 27.6661 61.7661 27.9528C61.2127 28.2395 60.5694 28.3828 59.8361 28.3828H57.3961V21.4028H59.8361ZM59.7861 27.1928C60.5194 27.1928 61.0861 26.9928 61.4861 26.5928C61.8861 26.1928 62.0861 25.6295 62.0861 24.9028C62.0861 24.1761 61.8861 23.6095 61.4861 23.2028C61.0861 22.7895 60.5194 22.5828 59.7861 22.5828H58.7961V27.1928H59.7861ZM65.964 22.5328V24.2828H68.314V25.3928H65.964V27.2428H68.614V28.3828H64.564V21.3928H68.614V22.5328H65.964ZM73.4863 28.3828L71.9463 25.6628H71.2863V28.3828H69.8863V21.4028H72.5063C73.0463 21.4028 73.5063 21.4995 73.8863 21.6928C74.2663 21.8795 74.5496 22.1361 74.7363 22.4628C74.9296 22.7828 75.0263 23.1428 75.0263 23.5428C75.0263 24.0028 74.893 24.4195 74.6263 24.7928C74.3596 25.1595 73.963 25.4128 73.4363 25.5528L75.1063 28.3828H73.4863ZM71.2863 24.6128H72.4563C72.8363 24.6128 73.1196 24.5228 73.3063 24.3428C73.493 24.1561 73.5863 23.8995 73.5863 23.5728C73.5863 23.2528 73.493 23.0061 73.3063 22.8328C73.1196 22.6528 72.8363 22.5628 72.4563 22.5628H71.2863V24.6128ZM80.5525 24.2228V25.4028H76.3125V24.2228H80.5525ZM85.7226 28.3828L84.1826 25.6628H83.5226V28.3828H82.1226V21.4028H84.7426C85.2826 21.4028 85.7426 21.4995 86.1226 21.6928C86.5026 21.8795 86.786 22.1361 86.9726 22.4628C87.166 22.7828 87.2626 23.1428 87.2626 23.5428C87.2626 24.0028 87.1293 24.4195 86.8626 24.7928C86.596 25.1595 86.1993 25.4128 85.6726 25.5528L87.3426 28.3828H85.7226ZM83.5226 24.6128H84.6926C85.0726 24.6128 85.356 24.5228 85.5426 24.3428C85.7293 24.1561 85.8226 23.8995 85.8226 23.5728C85.8226 23.2528 85.7293 23.0061 85.5426 22.8328C85.356 22.6528 85.0726 22.5628 84.6926 22.5628H83.5226V24.6128ZM89.9289 22.5328V24.2828H92.2789V25.3928H89.9289V27.2428H92.5789V28.3828H88.5289V21.3928H92.5789V22.5328H89.9289ZM100.121 21.4028L97.5611 28.3828H95.8611L93.3011 21.4028H94.8011L96.7211 26.9528L98.6311 21.4028H100.121ZM102.361 21.4028V28.3828H100.961V21.4028H102.361ZM105.144 22.5328V24.2828H107.494V25.3928H105.144V27.2428H107.794V28.3828H103.744V21.3928H107.794V22.5328H105.144ZM118.396 21.4028L116.446 28.3828H114.796L113.486 23.4128L112.116 28.3828L110.476 28.3928L108.596 21.4028H110.096L111.326 26.8228L112.746 21.4028H114.306L115.646 26.7928L116.886 21.4028H118.396Z" fill="#002733"/>
</svg>
