<svg width="14" height="18" viewBox="0 0 14 18" fill="none" xmlns="http://www.w3.org/2000/svg">
<path d="M6.4114 0.910093C6.73683 0.584656 7.26447 0.584656 7.58991 0.910093L10.9232 4.24343C11.2487 4.56886 11.2487 5.0965 10.9232 5.42194C10.5978 5.74738 10.0702 5.74738 9.74473 5.42194L7.83398 3.51119V12.3327C7.83398 12.7929 7.46089 13.166 7.00065 13.166C6.54041 13.166 6.16732 12.7929 6.16732 12.3327V3.51119L4.25657 5.42194C3.93114 5.74738 3.4035 5.74738 3.07806 5.42194C2.75262 5.0965 2.75262 4.56886 3.07806 4.24343L6.4114 0.910093ZM1.16732 13.166C1.62755 13.166 2.00065 13.5391 2.00065 13.9993V15.666H12.0007V13.9993C12.0007 13.5391 12.3737 13.166 12.834 13.166C13.2942 13.166 13.6673 13.5391 13.6673 13.9993V15.666C13.6673 16.5865 12.9211 17.3327 12.0007 17.3327H2.00065C1.08018 17.3327 0.333984 16.5865 0.333984 15.666V13.9993C0.333984 13.5391 0.70708 13.166 1.16732 13.166Z" fill="white"/>
</svg>
