<svg width="14" height="22" viewBox="0 0 14 22" fill="none" xmlns="http://www.w3.org/2000/svg">
<path d="M11.384 7.712L8.17895 5.384C7.81917 5.1207 7.38156 4.98551 6.93595 5C6.39245 5.01355 5.86667 5.19611 5.43171 5.52228C4.99674 5.84846 4.67421 6.30205 4.50895 6.82C4.32295 7.403 4.15295 7.797 3.99895 8.002C3.53364 8.6228 2.93004 9.12661 2.23605 9.47343C1.54206 9.82025 0.776782 10.0005 0.000953674 10V12C1.03366 12.0011 2.05377 11.7733 2.98785 11.3329C3.92194 10.8925 4.74676 10.2504 5.40295 9.453L6.09995 13.408L4.03895 15.138L1.81595 21.246L3.69595 21.93L5.73595 16.326L9.12595 13.481C9.40415 13.2564 9.61704 12.9612 9.74244 12.6264C9.86784 12.2915 9.90117 11.9291 9.83895 11.577L9.32995 8.692L10.007 9.184L12.134 12.112L13.752 10.936L11.401 7.7L11.384 7.712ZM5.50095 4.5C6.03139 4.5 6.54009 4.28929 6.91517 3.91421C7.29024 3.53914 7.50095 3.03043 7.50095 2.5C7.50095 1.96957 7.29024 1.46086 6.91517 1.08579C6.54009 0.710714 6.03139 0.5 5.50095 0.5C4.97052 0.5 4.46181 0.710714 4.08674 1.08579C3.71167 1.46086 3.50095 1.96957 3.50095 2.5C3.50095 3.03043 3.71167 3.53914 4.08674 3.91421C4.46181 4.28929 4.97052 4.5 5.50095 4.5ZM8.47295 17.681L11.687 21.511L13.219 20.226L10.243 16.68L9.49695 14.5L7.70595 16L8.47295 17.681Z" fill="#0065FF"/>
</svg>
