<svg width="24" height="24" viewBox="0 0 24 24" fill="none" xmlns="http://www.w3.org/2000/svg">
<rect width="24" height="24" fill="white" fill-opacity="0.01"/>
<path fill-rule="evenodd" clip-rule="evenodd" d="M13.3093 5.34174L20.6683 18.5117C20.7531 18.6639 20.7968 18.8356 20.7948 19.0099C20.7929 19.1841 20.7455 19.3548 20.6572 19.505C20.569 19.6553 20.4431 19.7799 20.2919 19.8665C20.1407 19.9531 19.9695 19.9987 19.7953 19.9987H4.20328C4.0289 19.9988 3.85755 19.9532 3.70622 19.8665C3.55489 19.7799 3.42885 19.6552 3.34061 19.5048C3.25237 19.3544 3.20499 19.1835 3.20318 19.0091C3.20137 18.8348 3.24518 18.6629 3.33028 18.5107L10.6903 5.34174C10.8205 5.10898 11.0105 4.91516 11.2406 4.78025C11.4707 4.64534 11.7326 4.57422 11.9993 4.57422C12.266 4.57422 12.5279 4.64534 12.758 4.78025C12.9881 4.91516 13.178 5.10898 13.3083 5.34174H13.3093ZM11.9993 8.49874C11.8435 8.49873 11.6895 8.53208 11.5477 8.59655C11.4059 8.66102 11.2795 8.75511 11.1771 8.87249C11.0747 8.98988 10.9986 9.12783 10.954 9.27708C10.9093 9.42632 10.8971 9.5834 10.9183 9.73774L11.4313 13.5037C11.4496 13.6414 11.5173 13.7678 11.6218 13.8593C11.7262 13.9508 11.8604 14.0012 11.9993 14.0012C12.1382 14.0012 12.2723 13.9508 12.3768 13.8593C12.4813 13.7678 12.549 13.6414 12.5673 13.5037L13.0803 9.73774C13.1014 9.5834 13.0892 9.42632 13.0446 9.27708C13 9.12783 12.9239 8.98988 12.8215 8.87249C12.719 8.75511 12.5927 8.66102 12.4509 8.59655C12.309 8.53208 12.1551 8.49873 11.9993 8.49874ZM11.9993 17.1287C12.2976 17.1287 12.5838 17.0102 12.7948 16.7992C13.0058 16.5883 13.1243 16.3021 13.1243 16.0037C13.1243 15.7054 13.0058 15.4192 12.7948 15.2082C12.5838 14.9973 12.2976 14.8787 11.9993 14.8787C11.7009 14.8787 11.4148 14.9973 11.2038 15.2082C10.9928 15.4192 10.8743 15.7054 10.8743 16.0037C10.8743 16.3021 10.9928 16.5883 11.2038 16.7992C11.4148 17.0102 11.7009 17.1287 11.9993 17.1287Z" fill="#FF991F"/>
</svg>
